<svg width="55" height="55" viewBox="0 0 55 55" fill="#000000" xmlns="http://www.w3.org/2000/svg">
<g clip-path="url(#clip0_101_193)">
<path d="M52.9415 40.0292C51.692 40.7665 50.0403 40.6094 48.9514 39.5135C48.1936 38.7508 46.966 38.7509 46.2081 39.5135C44.9242 40.8057 42.8385 40.8056 41.5547 39.5135C40.7968 38.7508 39.5692 38.7509 38.8114 39.5135C37.5275 40.8057 35.4417 40.8056 34.1579 39.5135C33.4 38.7508 32.1725 38.7509 31.4146 39.5135C30.7828 40.1494 29.9335 40.4973 29.0319 40.4804C24.8901 36.889 19.6928 34.5297 14.0375 33.8929C15.9578 29.7039 17.1535 25.9289 17.8771 23.1362C18.5106 25.3658 18.839 28.63 17.6006 32.7474C17.4279 33.3217 17.649 33.9267 18.1508 34.2531C18.6506 34.5783 19.2914 34.5355 19.7448 34.1461C23.132 31.2367 25.0883 27.3588 23.0973 23.3635C24.9414 24.8143 26.9269 27.0039 28.5446 30.2965C29.1564 31.5414 31.0208 31.2247 31.1768 29.8423C31.7455 24.7979 30.2962 20.0903 25.4001 18.4983C27.7349 18.4874 30.5538 18.8921 33.7421 20.1439C34.3507 20.3828 35.0269 20.196 35.4254 19.681C35.8229 19.1674 35.8333 18.4684 35.4512 17.9419C31.198 12.081 25.4734 10.141 19.6944 14.7007C22.0764 6.9259 17.784 1.93457 10.1559 0.0456673C9.501 -0.116432 8.8337 0.165657 8.49489 0.747452C8.1549 1.3315 8.23955 2.05413 8.70576 2.54547C12.1372 6.16235 13.7534 9.74776 14.5065 12.5015C10.925 7.91321 5.74092 8.29918 0.8815 11.521C0.361795 11.8654 0.136533 12.4962 0.321083 13.0907C0.503807 13.6796 1.03705 14.071 1.65268 14.071C1.66063 14.071 1.66858 14.0709 1.67663 14.0708C5.37043 14.0112 8.23407 14.8069 10.3285 15.7665C5.84899 15.8294 3.30181 19.3363 2.25993 23.6581C2.11985 24.239 2.37348 24.8288 2.89093 25.1258C3.4102 25.4238 4.04957 25.3448 4.48195 24.9295C7.4413 22.0868 10.3678 20.899 12.4405 20.4079C12.7147 20.7006 13.0391 20.942 13.402 21.1224C12.4933 24.0519 10.6472 28.6159 6.97842 33.9995C5.10424 34.2678 3.25766 34.7269 1.48478 35.3709C0.596619 35.6934 0 36.5447 0 37.4891V52.7475C0 53.9894 1.0103 54.9997 2.2522 54.9997H16.9162C17.3612 54.9997 17.7219 54.6391 17.7219 54.194C17.7219 53.749 17.3612 53.3884 16.9162 53.3884H2.2522C1.89878 53.3884 1.61132 53.1009 1.61132 52.7475V51.6493C6.05094 47.3936 10.0926 41.9897 13.3062 35.4373C23.7175 36.3856 32.5331 43.517 35.7043 53.3883H20.6759C20.2309 53.3883 19.8703 53.7489 19.8703 54.1939C19.8703 54.639 20.2309 54.9996 20.6759 54.9996H52.7641C53.9971 54.9996 55 53.9966 55 52.7637V46.8791V41.1989C55 40.132 53.8409 39.4979 52.9415 40.0292ZM19.4049 32.2724C20.448 28.1889 20.0686 24.9097 19.4065 22.6222C19.7496 22.5406 20.0778 22.4064 20.3789 22.2257C23.3859 25.6421 22.6491 29.0942 19.4049 32.2724ZM29.6436 28.9043C27.2533 24.3818 24.1969 21.9017 21.794 20.5599C21.9285 20.221 22.0105 19.8217 22.0256 19.5452C27.6315 19.7864 30.0178 23.2545 29.6436 28.9043ZM33.8176 18.4483C30.6684 17.2821 27.8574 16.8861 25.4923 16.8861C23.9141 16.8861 22.534 17.0625 21.385 17.3038C21.0918 16.8999 20.7139 16.5612 20.2685 16.316C20.2677 16.3156 20.2671 16.3152 20.2663 16.3148C25.1889 12.1378 29.8782 13.3484 33.8176 18.4483ZM20.3302 19.8727C19.8209 21.3993 17.9144 21.3428 17.2992 20.5226C18.0821 19.7655 18.4755 18.6461 18.2969 17.5336C19.641 17.2856 20.7622 18.5768 20.3302 19.8727ZM10.1224 1.70082C17.4599 3.66137 20.6629 8.35934 17.5544 15.8931C17.2999 15.5839 16.9838 15.3206 16.6531 15.1277C16.3241 12.2038 15.011 6.97876 10.1224 1.70082ZM4.07997 23.1098C5.24582 19.3345 7.64164 16.8975 11.5704 17.4595C11.4771 17.9528 11.5038 18.4813 11.6297 18.9504C9.56427 19.5025 6.85037 20.6678 4.07997 23.1098ZM2.41483 12.4585C7.11377 9.64549 11.2839 10.0019 14.0958 14.7622C13.6639 14.8715 13.2702 15.0573 12.9112 15.3192C10.7072 13.9652 7.24085 12.524 2.41483 12.4585ZM13.1327 17.9478C13.2027 16.9566 14.0516 16.2211 15.0264 16.274C15.0275 16.2741 15.0285 16.2741 15.0296 16.2741C16.0034 16.3289 16.7673 17.1625 16.7251 18.1485C16.6785 19.1889 15.7604 19.9794 14.7209 19.8589C13.7499 19.7455 13.0666 18.891 13.1327 17.9478ZM1.61132 37.4891C1.61132 37.22 1.78148 36.9774 2.03467 36.8854C3.21104 36.4581 4.42179 36.1161 5.65187 35.8629C4.41169 37.549 3.06033 39.2126 1.61229 40.8361C1.61197 40.8364 1.61164 40.8368 1.61132 40.8371V37.4891ZM1.61132 49.3783V43.2254C7.34569 37.1019 12.5394 29.4344 14.9773 21.4819C15.2476 21.4781 15.5855 21.4331 15.8895 21.3435C16.0526 21.5622 16.2722 21.793 16.5069 21.9792C14.1038 31.7783 8.97302 41.8715 1.61132 49.3783ZM53.3887 52.7637C53.3887 53.1081 53.1085 53.3883 52.7641 53.3883H37.3925C36.9263 51.837 36.3097 50.2933 35.5609 48.8226C37.1215 49.119 38.7672 48.66 39.9543 47.4653C40.0813 47.3374 40.2844 47.3373 40.4115 47.4653C42.3262 49.3921 45.4365 49.3921 47.3512 47.4653C47.478 47.3375 47.6814 47.3373 47.8085 47.4653C49.3302 48.9967 51.5884 49.2958 53.3887 48.4334V52.7637ZM53.3887 46.5282C52.1153 47.603 50.1812 47.5673 48.9514 46.3297C48.1936 45.567 46.966 45.5671 46.2081 46.3297C44.9243 47.6218 42.8384 47.6219 41.5547 46.3297C41.1886 45.9611 40.7016 45.7583 40.183 45.7582C40.2905 45.7582 39.4601 45.6769 38.8113 46.3297C37.5277 47.6215 35.4419 47.6221 34.1581 46.33C34.1307 46.3023 34.101 46.2755 34.0705 46.2487C33.0717 44.7209 31.8842 43.2412 30.529 41.8785C31.2876 41.6459 31.9821 41.2285 32.5576 40.6493C32.6846 40.5215 32.8877 40.5213 33.0148 40.6493C34.9295 42.5761 38.0398 42.5761 39.9544 40.6493C40.0813 40.5215 40.2847 40.5213 40.4117 40.6493C42.3264 42.5761 45.4366 42.5761 47.3513 40.6493C47.4781 40.5215 47.6815 40.5213 47.8086 40.6493C49.338 42.1884 51.5907 42.4752 53.3888 41.615V46.5282H53.3887Z" />
<path d="M51.9546 29.1296H53.2704C53.7154 29.1296 54.0761 28.769 54.0761 28.3239C54.0761 27.8789 53.7154 27.5183 53.2704 27.5183H51.9546C51.5095 27.5183 51.1489 27.8789 51.1489 28.3239C51.1489 28.769 51.5096 29.1296 51.9546 29.1296Z" />
<path d="M36.1453 27.5183H34.8295C34.3845 27.5183 34.0239 27.8789 34.0239 28.3239C34.0239 28.769 34.3845 29.1296 34.8295 29.1296H36.1453C36.5904 29.1296 36.951 28.769 36.951 28.3239C36.951 27.8789 36.5904 27.5183 36.1453 27.5183Z" />
<path d="M50.209 23.3041L51.1395 22.3738C51.4543 22.0591 51.4543 21.549 51.1396 21.2344C50.8249 20.9198 50.3147 20.9197 50.0003 21.2343L49.0698 22.1647C48.7551 22.4794 48.7551 22.9895 49.0697 23.304C49.3846 23.619 49.8947 23.6186 50.209 23.3041Z" />
<path d="M38.0999 35.4134L39.0302 34.483C39.3449 34.1683 39.3449 33.6582 39.0301 33.3436C38.7156 33.0291 38.2055 33.029 37.8908 33.3437L36.9605 34.2742C36.6458 34.5889 36.6458 35.099 36.9606 35.4136C37.275 35.7281 37.7851 35.7282 38.0999 35.4134Z" />
<path d="M44.8557 20.4192V19.1034C44.8557 18.6584 44.495 18.2978 44.05 18.2978C43.6049 18.2978 43.2443 18.6584 43.2443 19.1034V20.4192C43.2443 20.8643 43.6049 21.2249 44.05 21.2249C44.495 21.2249 44.8557 20.8642 44.8557 20.4192Z" />
<path d="M43.2443 36.2286V37.5444C43.2443 37.9894 43.6049 38.35 44.05 38.35C44.495 38.35 44.8557 37.9894 44.8557 37.5444V36.2286C44.8557 35.7835 44.495 35.4229 44.05 35.4229C43.6049 35.4229 43.2443 35.7835 43.2443 36.2286Z" />
<path d="M37.8908 23.3041C38.2056 23.6188 38.7156 23.6187 39.0302 23.3041C39.3449 22.9894 39.3449 22.4794 39.0302 22.1647L38.0998 21.2343C37.7851 20.9198 37.275 20.9198 36.9604 21.2343C36.6458 21.5491 36.6458 22.0591 36.9604 22.3738L37.8908 23.3041Z" />
<path d="M50.0002 35.4136C50.3151 35.7282 50.825 35.7281 51.1396 35.4136C51.4543 35.0988 51.4543 34.5888 51.1396 34.2741L50.2091 33.3436C49.8944 33.0291 49.3844 33.0291 49.0697 33.3436C48.7551 33.6584 48.7551 34.1684 49.0697 34.4831L50.0002 35.4136Z" />
<path d="M49.3604 30.5882C49.5352 30.1789 49.3449 29.7056 48.9358 29.5309C48.5265 29.3561 48.0532 29.5465 47.8785 29.9556C47.2227 31.4919 45.7199 32.4846 44.05 32.4846C41.7558 32.4846 39.8893 30.6182 39.8893 28.3239C39.8893 26.0297 41.7558 24.1633 44.05 24.1633C45.7737 24.1633 47.2942 25.2008 47.9238 26.8063C48.0865 27.2205 48.5538 27.4246 48.9681 27.2622C49.3823 27.0997 49.5864 26.6323 49.424 26.2179C48.5505 23.991 46.4411 22.5519 44.05 22.5519C40.8673 22.5519 38.278 25.1412 38.278 28.3238C38.278 31.5065 40.8673 34.0958 44.05 34.0958C46.3663 34.0959 48.4507 32.7191 49.3604 30.5882Z" />
</g>

</svg>
