<svg width="55" height="55" viewBox="0 0 55 55" fill="#000000" xmlns="http://www.w3.org/2000/svg">
<g clip-path="url(#clip0_107_383)">
<path d="M54.1947 52.215H53.7642C53.4358 51.2696 52.7863 49.1685 52.7863 47.3448C52.7863 45.5211 53.4359 43.4199 53.7642 42.4746H54.1947C54.6395 42.4746 55 42.114 55 41.6693C55 41.2245 54.6395 40.8639 54.1947 40.8639H48.1175C48.5623 40.8639 48.9228 40.5033 48.9228 40.0586C48.9228 39.6138 48.5623 39.2532 48.1175 39.2532H48.0303C47.2358 38.408 46.5639 37.4611 46.0336 36.4318C45.8298 36.0365 45.3441 35.8812 44.9487 36.0848C44.5534 36.2886 44.398 36.7743 44.6018 37.1697C44.9798 37.9033 45.4227 38.5989 45.922 39.2532H8.61771C6.41523 39.2532 4.62344 37.4614 4.62344 35.259V26.2507C4.62344 24.0482 6.41523 22.2564 8.61771 22.2564H32.2095V25.165C32.2095 25.6431 32.4986 26.0609 32.946 26.2294C33.2584 26.3641 33.8295 26.3147 34.2015 25.9158L35.0805 24.9156L35.9595 25.9157C36.2751 26.275 36.7683 26.3981 37.2151 26.2294C37.6624 26.0609 37.9516 25.643 37.9516 25.165V22.2564H45.9184C44.0595 24.6877 43.0518 27.6457 43.0518 30.7547C43.0518 31.5796 43.1241 32.4065 43.2665 33.2124C43.3356 33.603 43.6754 33.8776 44.0587 33.8776C44.1052 33.8776 44.1524 33.8736 44.1999 33.8652C44.6379 33.7877 44.9301 33.3699 44.8527 32.9319C44.7265 32.2183 44.6625 31.4859 44.6625 30.7547C44.6625 27.5716 45.8552 24.5671 48.0279 22.2564H48.1175C48.5623 22.2564 48.9228 21.8958 48.9228 21.4511C48.9228 21.0062 48.5623 20.6457 48.1175 20.6457H53.9187C54.3635 20.6457 54.724 20.2851 54.724 19.8404C54.724 19.3956 54.3635 19.035 53.9187 19.035H53.5819C53.2809 18.1604 52.7165 16.306 52.7165 14.6939C52.7165 13.0819 53.2809 11.2274 53.5819 10.3529H53.9187C54.3635 10.3529 54.724 9.99228 54.724 9.54755C54.724 9.10282 54.3635 8.74221 53.9187 8.74221H53.0043C53.0032 8.74221 53.0022 8.74221 53.0011 8.74221H48.0095C48.3374 8.74221 48.6325 8.54358 48.7558 8.2398C48.8791 7.93611 48.8061 7.58796 48.571 7.35947C47.9163 6.72268 47.5556 5.86985 47.5556 4.95838C47.5556 4.04691 47.9162 3.19408 48.571 2.55729C49.0382 2.12857 48.7813 1.15941 48.0094 1.17455H11.6745C11.2297 1.17455 10.8692 1.53517 10.8692 1.97989C10.8692 2.42462 11.2298 2.78524 11.6745 2.78524H46.4437C46.1174 3.45308 45.9448 4.1915 45.9448 4.95827C45.9448 5.72505 46.1169 6.46358 46.4432 7.13131H3.82164C2.62335 7.13131 1.6486 6.15646 1.6486 4.95827C1.6486 3.76009 2.62346 2.78524 3.82164 2.78524H7.58055C8.02538 2.78524 8.38589 2.42462 8.38589 1.97989C8.38589 1.53517 8.02527 1.17455 7.58055 1.17455H3.82164C1.73519 1.17455 0.0378125 2.87193 0.0378125 4.95838C0.0378125 7.04484 1.73519 8.74221 3.82164 8.74221H11.3348C8.05299 8.74221 5.38302 11.4122 5.38302 14.694C5.38302 17.9759 8.05299 20.6458 11.3348 20.6458H8.61771C5.52707 20.6458 3.01275 23.1602 3.01275 26.2508V35.2589C3.01275 38.3495 5.52707 40.8638 8.61771 40.8638H6.48098C2.90737 40.8638 0 43.7712 0 47.3448C0 50.9184 2.90737 53.8258 6.48098 53.8258H40.3658C40.8106 53.8258 41.1712 53.4651 41.1712 53.0204C41.1712 52.5757 40.8106 52.2151 40.3658 52.2151H6.48098C3.79554 52.2151 1.61079 50.0303 1.61079 47.3449C1.61079 44.6595 3.79554 42.4747 6.48098 42.4747H52.0646C51.6882 43.6479 51.1755 45.5711 51.1755 47.3449C51.1755 49.1186 51.6883 51.042 52.0646 52.2151H44.4933C44.0484 52.2151 43.6879 52.5757 43.6879 53.0204C43.6879 53.4651 44.0484 53.8258 44.4933 53.8258H54.1947C54.6395 53.8258 55 53.4651 55 53.0204C55 52.5757 54.6395 52.215 54.1947 52.215ZM35.8459 23.3465C35.6525 23.1264 35.3735 23.0003 35.0805 23.0003C34.7876 23.0003 34.5086 23.1264 34.3151 23.3466L33.8203 23.9096V14.1637H36.3408V23.9096L35.8459 23.3465ZM6.99381 14.6939C6.99381 12.3002 8.94126 10.3529 11.3348 10.3529H51.8844C51.5451 11.4289 51.1056 13.1252 51.1056 14.6939C51.1056 16.2627 51.5451 17.959 51.8844 19.035H37.9515V14.1638H45.2501C45.6949 14.1638 46.0554 13.8032 46.0554 13.3584C46.0554 12.9137 45.6949 12.5531 45.2501 12.5531H31.9329C31.488 12.5531 31.1275 12.9137 31.1275 13.3584C31.1275 13.8032 31.488 14.1638 31.9329 14.1638H32.2095V19.035H11.3349C8.94126 19.035 6.99381 17.0876 6.99381 14.6939Z" />
<path d="M23.6931 31.181H41.3955C41.8403 31.181 42.2008 30.8204 42.2008 30.3757C42.2008 29.9308 41.8403 29.5703 41.3955 29.5703H23.6931C23.2483 29.5703 22.8878 29.931 22.8878 30.3757C22.8878 30.8204 23.2483 31.181 23.6931 31.181Z" />
<path d="M31.9328 47.6143C31.488 47.6143 31.1275 47.9749 31.1275 48.4196C31.1275 48.8644 31.488 49.225 31.9328 49.225H35.551C35.9959 49.225 36.3564 48.8644 36.3564 48.4196C36.3564 47.9749 35.9959 47.6143 35.551 47.6143H31.9328Z" />
<path d="M14.7224 47.6143C14.2776 47.6143 13.9171 47.9749 13.9171 48.4196C13.9171 48.8644 14.2777 49.225 14.7224 49.225H28.4061C28.851 49.225 29.2115 48.8644 29.2115 48.4196C29.2115 47.9749 28.851 47.6143 28.4061 47.6143H14.7224Z" />
<path d="M26.5047 14.1637H28.5744C29.0192 14.1637 29.3797 13.8031 29.3797 13.3583C29.3797 12.9136 29.0192 12.553 28.5744 12.553H26.5047C26.0598 12.553 25.6993 12.9136 25.6993 13.3583C25.6993 13.8031 26.0598 14.1637 26.5047 14.1637Z" />
<path d="M12.274 36.234C12.69 36.4452 13.1822 36.4053 13.5587 36.1299L16.0998 34.2715L18.6409 36.1299C19.2612 36.6632 20.6099 36.2132 20.5999 35.1355V27.9181H22.968C23.4129 27.9181 23.7734 27.5575 23.7734 27.1128C23.7734 26.668 23.4128 26.3074 22.968 26.3074H9.65105C9.20621 26.3074 8.8457 26.668 8.8457 27.1128C8.8457 27.5575 9.20632 27.9181 9.65105 27.9181H11.5997V35.1355C11.5997 35.6019 11.8581 36.0228 12.274 36.234ZM18.9894 34.3891L16.5754 32.6236C16.4338 32.52 16.2668 32.4683 16.0999 32.4683C15.933 32.4683 15.766 32.52 15.6245 32.6236L13.2104 34.3891V27.918H18.9893V34.3891H18.9894Z" />
</g>
</svg>
