<svg width="55" height="55" viewBox="0 0 55 55" fill="#000000" xmlns="http://www.w3.org/2000/svg">
<g clip-path="url(#clip0_102_318)">
<path d="M8.01921 46.6749C10.6283 46.6749 12.7509 44.5523 12.7509 41.9432C12.7509 39.3341 10.6283 37.2115 8.01921 37.2115C5.41015 37.2115 3.2876 39.3341 3.2876 41.9432C3.2876 42.8913 3.56722 43.8063 4.09616 44.5893C4.34517 44.958 4.84607 45.0551 5.21475 44.8059C5.58342 44.5568 5.68042 44.056 5.43131 43.6873C5.08305 43.1718 4.89893 42.5687 4.89893 41.9433C4.89893 40.2227 6.29874 38.8229 8.01932 38.8229C9.73989 38.8229 11.1397 40.2227 11.1397 41.9433C11.1397 43.6639 9.73989 45.0637 8.01932 45.0637C7.57438 45.0637 7.21365 45.4244 7.21365 45.8694C7.21365 46.3143 7.57427 46.6749 8.01921 46.6749Z" />
<path d="M8.01921 26.1367C5.41015 26.1367 3.2876 28.2594 3.2876 30.8684C3.2876 33.4775 5.41025 35.6001 8.01921 35.6001C10.6283 35.6001 12.7509 33.4775 12.7509 30.8684C12.7509 28.2594 10.6283 26.1367 8.01921 26.1367ZM8.01921 33.9888C6.29863 33.9888 4.89882 32.589 4.89882 30.8684C4.89882 29.1479 6.29863 27.748 8.01921 27.748C9.73979 27.748 11.1396 29.1479 11.1396 30.8684C11.1396 32.589 9.73979 33.9888 8.01921 33.9888Z" />
<path d="M13.5385 22.9204H2.49987C1.12218 22.9204 0.00134277 24.0412 0.00134277 25.4189V54.1943C0.00134277 54.6393 0.362065 55 0.807007 55H15.2314C15.6763 55 16.0371 54.6393 16.0371 54.1943V31.1216C16.0371 30.6767 15.6763 30.316 15.2314 30.316C14.7865 30.316 14.4257 30.6767 14.4257 31.1216V48.2324H1.61267V25.4189C1.61267 24.9297 2.01067 24.5317 2.49987 24.5317H13.5385C14.0277 24.5317 14.4257 24.9297 14.4257 25.4189V27.398C14.4257 27.8429 14.7865 28.2036 15.2314 28.2036C15.6763 28.2036 16.0371 27.8429 16.0371 27.398V25.4189C16.0371 24.0412 14.9162 22.9204 13.5385 22.9204ZM14.4257 49.8438V53.3887H1.61267V49.8438H14.4257Z" />
<path d="M46.98 37.2115C44.3709 37.2115 42.2483 39.3341 42.2483 41.9432C42.2483 44.5523 44.3709 46.6749 46.98 46.6749C49.5891 46.6749 51.7116 44.5523 51.7116 41.9432C51.7117 39.3341 49.5891 37.2115 46.98 37.2115ZM46.98 45.0636C45.2594 45.0636 43.8596 43.6638 43.8596 41.9432C43.8596 40.2226 45.2594 38.8228 46.98 38.8228C48.7006 38.8228 50.1004 40.2226 50.1004 41.9432C50.1004 43.6638 48.7006 45.0636 46.98 45.0636Z" />
<path d="M46.98 26.1367C44.3709 26.1367 42.2483 28.2594 42.2483 30.8684C42.2483 33.4775 44.3709 35.6001 46.98 35.6001C49.5891 35.6001 51.7116 33.4775 51.7116 30.8684C51.7117 28.2594 49.5891 26.1367 46.98 26.1367ZM46.98 33.9888C45.2594 33.9888 43.8596 32.589 43.8596 30.8684C43.8596 29.1479 45.2594 27.748 46.98 27.748C48.7006 27.748 50.1004 29.1479 50.1004 30.8684C50.1004 32.589 48.7006 33.9888 46.98 33.9888Z" />
<path d="M52.4994 22.9204H41.4607C40.083 22.9204 38.9622 24.0412 38.9622 25.4189V54.1943C38.9622 54.6393 39.3229 55 39.7678 55H54.1922C54.6372 55 54.9979 54.6393 54.9979 54.1943V45.67C54.9979 45.225 54.6372 44.8643 54.1922 44.8643C53.7473 44.8643 53.3866 45.225 53.3866 45.67V48.2324H40.5735V25.4189C40.5735 24.9297 40.9715 24.5317 41.4607 24.5317H52.4994C52.9886 24.5317 53.3866 24.9297 53.3866 25.4189V41.9432C53.3866 42.3881 53.7473 42.7489 54.1922 42.7489C54.6372 42.7489 54.9979 42.3881 54.9979 41.9432V25.4189C54.9979 24.0412 53.877 22.9204 52.4994 22.9204ZM53.3866 49.8438V53.3887H40.5735V49.8438H53.3866Z" />
<path d="M36.4397 27.3979C36.4397 27.1428 36.3188 26.9028 36.1141 26.7509C35.9093 26.599 35.6445 26.553 35.4005 26.627L24.7658 29.8496C24.4261 29.9525 24.1938 30.2658 24.1938 30.6207V34.9014C24.1936 34.9123 24.1936 34.9232 24.1938 34.9341V44.9593C23.5885 44.5384 22.8537 44.2914 22.0622 44.2914C19.9983 44.2914 18.3193 45.9704 18.3193 48.0343C18.3193 50.0982 19.9983 51.7772 22.0622 51.7772C24.1261 51.7772 25.8051 50.0982 25.8051 48.0343V35.5152L29.8328 34.2946C30.2586 34.1656 30.4992 33.7157 30.3701 33.2899C30.2411 32.8641 29.7911 32.6235 29.3654 32.7526L25.8051 33.8315V31.2184L34.8285 28.484V31.0971L32.8966 31.6826C32.4708 31.8116 32.2301 32.2615 32.3593 32.6873C32.4646 33.0352 32.7843 33.2595 33.13 33.2595C33.2074 33.2595 33.2861 33.2483 33.364 33.2247L34.8286 32.781V41.7368C34.2232 41.3159 33.4885 41.069 32.697 41.069C30.6331 41.069 28.9541 42.748 28.9541 44.8119C28.9541 46.8758 30.6331 48.5548 32.697 48.5548C34.7609 48.5548 36.4399 46.8758 36.4399 44.8119V31.7108C36.4401 31.6999 36.4401 31.689 36.4399 31.6781V27.3979H36.4397ZM22.0621 50.166C20.8868 50.166 19.9306 49.2097 19.9306 48.0344C19.9306 46.8591 20.8868 45.9029 22.0621 45.9029C23.2374 45.9029 24.1937 46.8591 24.1937 48.0344C24.1937 49.2097 23.2374 50.166 22.0621 50.166ZM32.6968 46.9433C31.5215 46.9433 30.5652 45.9871 30.5652 44.8118C30.5652 43.6365 31.5215 42.6802 32.6968 42.6802C33.8721 42.6802 34.8284 43.6365 34.8284 44.8118C34.8284 45.9871 33.8721 46.9433 32.6968 46.9433Z" />
<path d="M47.0768 31.6815C47.5202 31.6442 47.8493 31.2544 47.8119 30.8111C47.7746 30.3677 47.3849 30.0385 46.9415 30.0759C46.4981 30.1132 46.169 30.503 46.2063 30.9463C46.2437 31.3897 46.6334 31.7189 47.0768 31.6815Z" />
<path d="M46.9799 41.1537C46.5352 41.1537 46.1747 41.5143 46.1747 41.959C46.1747 42.4037 46.5352 42.7642 46.9799 42.7642C47.4246 42.7642 47.7852 42.4037 47.7852 41.959C47.7852 41.5143 47.4246 41.1537 46.9799 41.1537Z" />
<path d="M8.81225 30.9627C8.86784 30.5215 8.55527 30.1188 8.11411 30.0632C7.67295 30.0077 7.27026 30.3202 7.21467 30.7614C7.15908 31.2025 7.47165 31.6052 7.91281 31.6608C8.35397 31.7164 8.75666 31.4039 8.81225 30.9627Z" />
<path d="M8.8236 41.9591C8.8236 41.5144 8.4631 41.1539 8.01837 41.1539C7.57364 41.1539 7.21313 41.5144 7.21313 41.9591C7.21313 42.4038 7.57364 42.7643 8.01837 42.7643C8.4631 42.7642 8.8236 42.4037 8.8236 41.9591Z" />
<path d="M34.883 51.1552C34.4383 51.1552 34.0778 51.5157 34.0778 51.9604C34.0778 52.4051 34.4383 52.7656 34.883 52.7656C35.3277 52.7656 35.6882 52.4051 35.6882 51.9604C35.6882 51.5157 35.3277 51.1552 34.883 51.1552Z" />
<path d="M47.936 16.2368C47.5347 16.4289 47.3651 16.91 47.5572 17.3114L48.8788 20.0726C49.0172 20.3618 49.3056 20.5307 49.6061 20.5307C49.7227 20.5307 49.8412 20.5052 49.9533 20.4515C50.3546 20.2594 50.5243 19.7783 50.3322 19.377L49.0106 16.6157C48.8184 16.2145 48.3374 16.0446 47.936 16.2368Z" />
<path d="M29.8552 20.7773C30.1335 20.7773 30.4043 20.6328 30.5535 20.3745C30.7761 19.9893 30.6442 19.4964 30.2589 19.2738L27.6091 17.7431C27.2239 17.5205 26.731 17.6523 26.5084 18.0377C26.2859 18.4229 26.4178 18.9158 26.8031 19.1384L29.4529 20.6691C29.5798 20.7424 29.7183 20.7773 29.8552 20.7773Z" />
<path d="M2.79229 20.1241C3.05849 20.1241 3.31909 19.9922 3.4726 19.751L5.11669 17.169C5.3557 16.7937 5.24517 16.2957 4.86983 16.0568C4.49439 15.8177 3.99649 15.9283 3.75759 16.3036L2.1135 18.8856C1.87448 19.2609 1.98502 19.759 2.36035 19.9979C2.49441 20.0833 2.64416 20.1241 2.79229 20.1241Z" />
<path d="M20.4811 25.6408C20.7226 25.6408 20.9615 25.5327 21.1201 25.3265L22.5134 23.516C22.7848 23.1634 22.7189 22.6575 22.3662 22.3862C22.0136 22.1148 21.5077 22.1807 21.2364 22.5334L19.8431 24.3438C19.5718 24.6965 19.6376 25.2023 19.9903 25.4737C20.1368 25.5863 20.3096 25.6408 20.4811 25.6408Z" />
<path d="M39.1464 15.4543L42.3212 4.82294C43.2262 4.75548 44.0675 4.68146 44.8493 4.60165V12.9868C44.8493 13.331 45.0679 13.637 45.3933 13.7488C45.4791 13.7783 45.5674 13.7926 45.6547 13.7926C45.8986 13.7926 46.135 13.6816 46.2907 13.4817L48.7475 10.3255L50.7255 11.7129C50.9716 11.8855 51.2932 11.9068 51.5598 11.7681C51.8264 11.6294 51.9938 11.3539 51.9938 11.0533V3.30936C54.3153 2.54774 54.8963 1.67515 54.9936 0.906549C55.0494 0.465153 54.7368 0.0619982 54.2954 0.00613879C53.8538 -0.0493983 53.4508 0.262877 53.395 0.704381C53.3939 0.712975 53.1729 1.589 49.1348 2.3706C44.7242 3.22407 37.4453 3.65687 27.4999 3.65687C17.5545 3.65687 10.2755 3.22407 5.86513 2.3705C1.82703 1.58889 1.60596 0.712868 1.60488 0.704274C1.54902 0.26277 1.14555 -0.0493983 0.704473 0.00603137C0.263076 0.0619982 -0.0495216 0.465045 0.00633773 0.906549C0.103555 1.67515 0.6846 2.54763 3.00609 3.30936V11.0534C3.00609 11.354 3.17335 11.6295 3.44008 11.7682C3.70648 11.9069 4.02832 11.8856 4.27442 11.713L6.25238 10.3256L8.70923 13.4818C8.86488 13.6817 9.10132 13.7927 9.34517 13.7927C9.4325 13.7927 9.5208 13.7785 9.60663 13.7489C9.93212 13.6371 10.1506 13.3311 10.1506 12.9869V4.60176C10.9324 4.68157 11.7737 4.75558 12.6787 4.82305L15.8535 15.4544C15.9552 15.7946 16.2674 16.0281 16.6224 16.0295H16.6256C16.9792 16.0295 17.2918 15.7988 17.3957 15.4604L20.5508 5.18914C21.3416 5.20858 22.1626 5.22459 23.0148 5.23705V13.2905C23.0148 13.5791 23.1692 13.8455 23.4195 13.9892C23.6698 14.1329 23.9779 14.1318 24.227 13.9861L27.4999 12.0737L30.7729 13.986C30.8985 14.0594 31.0389 14.096 31.1794 14.096C31.3178 14.096 31.4562 14.0604 31.5804 13.9891C31.8307 13.8455 31.9851 13.579 31.9851 13.2904V5.23694C32.8374 5.22448 33.6584 5.20848 34.4491 5.18903L37.6042 15.4603C37.7082 15.7987 38.0206 16.0294 38.3743 16.0294H38.3775C38.7326 16.028 39.0447 15.7945 39.1464 15.4543ZM46.4606 4.41892C48.0373 4.2203 49.3276 3.99482 50.3824 3.75119V9.50417L49.0452 8.56627C48.6937 8.31963 48.2104 8.39214 47.9468 8.73095L46.4606 10.6403V4.41892ZM8.53918 10.6404L7.053 8.73095C6.78917 8.39225 6.3062 8.31952 5.95461 8.56627L4.61742 9.50417V3.75119C5.6722 3.99482 6.96244 4.2203 8.53918 4.41892V10.6404ZM16.6362 12.4446L14.3946 4.93809C15.758 5.02006 17.2492 5.08859 18.8796 5.14144L16.6362 12.4446ZM30.3737 11.8867L27.9063 10.4451C27.6552 10.2983 27.3446 10.2983 27.0935 10.4451L24.626 11.8867V5.25585C25.5492 5.26401 26.5068 5.26831 27.4999 5.26831C28.493 5.26831 29.4506 5.26412 30.3737 5.25585V11.8867ZM38.3636 12.4446L36.1202 5.14155C37.7506 5.08859 39.2417 5.02016 40.6051 4.9382L38.3636 12.4446Z" />
<path d="M12.8627 19.4137C12.8627 18.969 12.5022 18.6085 12.0574 18.6085C11.6127 18.6085 11.2522 18.969 11.2522 19.4137C11.2522 19.8584 11.6127 20.2189 12.0574 20.2189C12.5022 20.219 12.8627 19.8585 12.8627 19.4137Z" />
<path d="M26.6952 25.2328C26.6952 25.6775 27.0557 26.038 27.5004 26.038C27.9452 26.038 28.3057 25.6775 28.3057 25.2328C28.3057 24.788 27.9452 24.4275 27.5004 24.4275C27.0557 24.4276 26.6952 24.788 26.6952 25.2328Z" />
<path d="M40.0458 20.0648C40.0458 19.6201 39.6853 19.2596 39.2405 19.2596C38.7958 19.2596 38.4353 19.6201 38.4353 20.0648C38.4353 20.5095 38.7958 20.87 39.2405 20.87C39.6853 20.87 40.0458 20.5095 40.0458 20.0648Z" />
</g>

</svg>
