<svg width="51" height="51" viewBox="0 0 51 51" fill="none" xmlns="http://www.w3.org/2000/svg">
<g clip-path="url(#clip0_49_1045)">
<path d="M50.6746 23.4336C48.5712 24.9903 46.2517 26.2315 43.7896 27.1179C43.7206 27.1453 43.6502 27.1688 43.5786 27.1883C43.262 27.3114 42.9455 27.4169 42.6201 27.5224C41.8112 27.795 40.9846 28.0324 40.1493 28.2522C39.8679 28.3314 39.5865 28.4017 39.2963 28.4721C39.1644 28.5072 39.0325 28.5424 38.9006 28.5688C38.5489 28.6567 38.1972 28.7359 37.8367 28.815C37.7732 28.8338 37.7086 28.8485 37.6432 28.859C37.2915 28.9381 36.9398 29.0084 36.5881 29.0788C36.2891 29.1403 35.9989 29.2019 35.7087 29.2547C35.2955 29.3338 34.8734 29.4129 34.4601 29.4921C34.1875 29.5448 33.9062 29.5976 33.6336 29.6415C33.5544 29.6591 33.4753 29.6679 33.405 29.6855C33.3258 29.7031 33.2555 29.7119 33.1763 29.7295C33.1587 29.7295 33.1324 29.7383 33.1148 29.7383C32.0684 29.9229 31.0308 30.0988 29.9844 30.2834H29.9669C29.747 30.3274 29.536 30.3626 29.325 30.3978C29.2106 30.4241 29.0875 30.4417 28.9732 30.4681L28.6831 30.5209C28.2522 30.6 27.8213 30.6791 27.3993 30.7583H27.3817C27.2146 30.7934 27.0387 30.8286 26.8717 30.8638C26.8374 30.8739 26.8019 30.8798 26.7662 30.8814C26.3881 30.9605 26.0188 31.0397 25.6494 31.1188C25.3856 31.1715 25.1219 31.2331 24.8669 31.2947C24.5063 31.3738 24.1458 31.4617 23.7941 31.5497C23.7316 31.5601 23.6699 31.5748 23.6094 31.5936C23.1874 31.6991 22.7741 31.8047 22.3608 31.919C21.3232 32.2091 20.3032 32.5345 19.3008 32.9038C16.6401 33.8582 14.1494 35.2327 11.9234 36.975C10.9562 34.3722 9.11842 32.2091 8.15118 29.6064C7.18394 27.0036 6.22549 24.4009 5.25825 21.7981C4.29101 19.1953 4.21187 16.1529 3.24463 13.5502C5.46879 11.8073 7.96006 10.4355 10.622 9.48775C11.1145 9.3031 11.5981 9.13603 12.0993 8.97775C12.5829 8.81948 13.0665 8.67879 13.5501 8.5381C13.5636 8.53099 13.5789 8.52794 13.5941 8.52931C14.0953 8.37982 14.6053 8.24793 15.1153 8.12482C15.2032 8.09844 15.3 8.08086 15.3967 8.05448C15.81 7.95775 16.2232 7.86103 16.6453 7.76431C16.8476 7.72034 17.0586 7.67637 17.2696 7.63241C17.5774 7.57086 17.8763 7.50931 18.1841 7.44775C18.2984 7.42137 18.4127 7.395 18.527 7.37741C18.5534 7.36862 18.5886 7.36862 18.615 7.35982C18.6437 7.35255 18.6733 7.34959 18.7029 7.35103C18.8172 7.32465 18.9403 7.29827 19.0546 7.28068C19.0738 7.27081 19.0947 7.26484 19.1162 7.2631C20.6022 6.98172 22.1058 6.72672 23.6006 6.46293C24.3569 6.33103 25.1219 6.19034 25.8781 6.04965C26.2562 5.9881 26.6431 5.90896 27.0212 5.83862C27.5663 5.7331 28.1115 5.62758 28.6479 5.50448C29.1051 5.40775 29.5624 5.31103 30.0108 5.19672C30.3098 5.12637 30.6 5.05603 30.8901 4.98568C31.3122 4.88017 31.7255 4.76586 32.1387 4.65155C32.6224 4.51965 33.106 4.37017 33.5808 4.22069C34.0029 4.08879 34.425 3.93931 34.8382 3.78982C37.2406 2.94578 39.5135 1.77084 41.5913 0.29896C41.8031 0.144054 42.075 0.0966708 42.3267 0.170799C42.5783 0.244927 42.7811 0.432101 42.8751 0.677064C43.7105 2.9281 44.5458 5.18793 45.3724 7.43896C46.3396 10.0417 47.3039 12.6415 48.2653 15.2384C49.1622 17.6478 50.0503 20.0571 50.9472 22.4664C51.0764 22.8138 50.9662 23.2049 50.6746 23.4336Z" fill="white"/>
<path d="M21.5959 15.1593C18.8475 15.6453 16.1445 16.36 13.5151 17.2961C12.5478 14.6933 11.5835 12.0905 10.6221 9.48778C11.1145 9.30313 11.5982 9.13606 12.0994 8.97779C12.583 8.81951 13.0666 8.67882 13.5502 8.53813C13.5637 8.53102 13.579 8.52797 13.5942 8.52934C14.0954 8.37985 14.6054 8.24796 15.1154 8.12485C15.2033 8.09848 15.3001 8.08089 15.3968 8.05451C15.8101 7.95779 16.2233 7.86106 16.6454 7.76434C16.8476 7.72037 17.0587 7.67641 17.2697 7.63244C17.5775 7.57089 17.8764 7.50934 18.1842 7.44779C18.2985 7.42141 18.4128 7.39503 18.5271 7.37744C18.5535 7.36865 18.5887 7.36865 18.6151 7.35986C18.6438 7.35258 18.6734 7.34962 18.703 7.35106C19.6702 9.95382 20.6345 12.5566 21.5959 15.1593Z" fill="#229186"/>
<path d="M27.3817 30.7583C27.2146 30.7935 27.0388 30.8286 26.8717 30.8638C26.8374 30.8739 26.8019 30.8798 26.7662 30.8814C26.3881 30.9605 26.0188 31.0397 25.6495 31.1188C25.3857 31.1716 25.1219 31.2331 24.8669 31.2947C24.5063 31.3738 24.1458 31.4617 23.7941 31.5497C23.7316 31.5601 23.6699 31.5748 23.6095 31.5936C23.1874 31.6991 22.7741 31.8047 22.3608 31.919C21.3232 32.2091 20.3032 32.5345 19.3008 32.9038C18.3336 30.3098 17.3693 27.71 16.4079 25.1043C19.0387 24.1706 21.7413 23.453 24.4888 22.9588C25.456 25.5616 26.4203 28.1614 27.3817 30.7583Z" fill="#229186"/>
<path d="M38.0038 11.5014C35.3703 12.4363 32.6647 13.1538 29.9141 13.6469C28.9557 11.0442 27.9914 8.4414 27.0212 5.83863C27.5664 5.73312 28.1115 5.6276 28.6479 5.5045C29.1051 5.40777 29.5624 5.31105 30.0108 5.19674C30.3098 5.12639 30.6 5.05605 30.8901 4.9857C31.3122 4.88019 31.7255 4.76587 32.1388 4.65156C32.6224 4.51967 33.106 4.37019 33.5808 4.2207C34.0029 4.08881 34.425 3.93932 34.8383 3.78984C34.9309 3.76292 35.0219 3.73062 35.1108 3.69312C36.0781 6.29588 37.0424 8.89864 38.0038 11.5014Z" fill="#229186"/>
<path d="M43.7896 27.118C43.7207 27.1454 43.6502 27.1688 43.5786 27.1883C43.2621 27.3114 42.9455 27.4169 42.6202 27.5225C41.8112 27.795 40.9847 28.0325 40.1493 28.2523C39.8679 28.3314 39.5865 28.4018 39.2964 28.4721C39.1645 28.5073 39.0326 28.5425 38.9007 28.5688C38.549 28.6568 38.1972 28.7359 37.8367 28.815C37.7733 28.8339 37.7086 28.8485 37.6433 28.859C37.2915 28.9381 36.9398 29.0085 36.5881 29.0788C36.2891 29.1404 35.999 29.2019 35.7088 29.2547C34.7415 26.6519 33.7772 24.0492 32.8159 21.4464C35.5633 20.9522 38.2659 20.2347 40.8967 19.3009C41.8552 21.9037 42.8195 24.5094 43.7896 27.118Z" fill="#229186"/>
<path d="M16.4079 25.1043C13.7459 26.052 11.2547 27.4239 9.03051 29.1667C8.06326 26.564 7.09895 23.9612 6.13757 21.3584C8.36173 19.6156 10.853 18.2438 13.515 17.296C14.4822 19.8988 15.4465 22.5015 16.4079 25.1043Z" fill="#229186"/>
<path d="M32.8158 21.4464C30.0548 21.9828 27.2498 22.4136 24.4888 22.9588C23.5215 20.3561 22.5572 17.7562 21.5958 15.1593C24.3569 14.6142 27.1531 14.1833 29.9141 13.6469C30.8813 16.2497 31.8486 18.8495 32.8158 21.4464Z" fill="#229186"/>
<path d="M48.2653 15.2384C46.0443 16.9811 43.5559 18.353 40.8967 19.3009C39.9295 16.6981 38.9652 14.0983 38.0038 11.5014C40.6598 10.5465 43.1471 9.1752 45.3724 7.43896C46.3396 10.0417 47.304 12.6416 48.2653 15.2384Z" fill="#229186"/>
<path d="M15.0059 50.3465L14.4003 50.5709C13.4898 50.9082 12.4781 50.4438 12.1405 49.5333L0.0296542 16.8519C-0.0950368 16.5152 0.0101533 16.1364 0.290633 15.9123L3.24582 13.5502L16.0438 48.0864C16.3813 48.9971 15.9166 50.009 15.0059 50.3465Z" fill="#FF9F1C"/>
</g>
<defs>
<clipPath id="clip0_49_1045">
<rect width="51" height="51" fill="white"/>
</clipPath>
</defs>
</svg>
