<svg width="30" height="30" viewBox="0 0 30 30" fill="none" xmlns="http://www.w3.org/2000/svg">
<path d="M14.9838 29.9675C23.2502 29.9675 29.9513 23.2663 29.9513 15C29.9513 6.7337 23.2502 0.0325317 14.9838 0.0325317C6.71753 0.0325317 0.0163574 6.7337 0.0163574 15C0.0163574 23.2663 6.71753 29.9675 14.9838 29.9675Z" fill="#40A459"/>
<path d="M14.9838 0.0325317C14.8699 0.0325317 14.7566 0.0342896 14.6433 0.0368091C14.6145 0.0374536 14.5857 0.0380981 14.5569 0.0389771C14.4489 0.0419653 14.3412 0.0459497 14.2338 0.0512231C14.2061 0.0525708 14.1785 0.0545044 14.1508 0.0559692C14.0691 0.060481 13.9876 0.0656372 13.9062 0.071438C13.8652 0.0743677 13.8243 0.0771802 13.7835 0.0804028C13.6892 0.0879028 13.595 0.0962231 13.5011 0.105481C13.4525 0.110286 13.4042 0.115618 13.3558 0.120833C13.2977 0.127161 13.2398 0.133782 13.1819 0.140754C13.1317 0.14679 13.0815 0.15259 13.0315 0.159094C20.3753 1.11575 26.0467 7.39531 26.0467 14.9998C26.0467 22.6044 20.3753 28.884 13.0316 29.8406C13.0816 29.8471 13.1317 29.853 13.182 29.859C13.2398 29.866 13.2978 29.8726 13.3559 29.8789C13.4043 29.8842 13.4527 29.8895 13.5011 29.8943C13.595 29.9035 13.6892 29.9118 13.7835 29.9193C13.8243 29.9226 13.8653 29.9254 13.9062 29.9283C13.9876 29.9341 14.0691 29.9393 14.1508 29.9438C14.1785 29.9453 14.2062 29.9472 14.2339 29.9485C14.3413 29.9538 14.4491 29.9578 14.557 29.9608C14.5858 29.9616 14.6145 29.9623 14.6433 29.9629C14.7566 29.9654 14.87 29.9672 14.9839 29.9672C23.2502 29.9672 29.9514 23.266 29.9514 14.9997C29.9514 6.73343 23.2502 0.0325317 14.9838 0.0325317Z" fill="#378B4E"/>
<path d="M13.0315 13.6985L19.2754 10.1153C19.2754 10.1153 26.1056 11.5702 27.682 8.69367L28.1792 7.78647L28.6116 8.72631C29.5093 10.6777 29.9838 12.8472 29.9838 15C29.9838 19.9624 27.5258 24.5996 23.4086 27.4045L22.9838 27.6939L13.0315 13.6985Z" fill="#898790"/>
<path d="M29.9512 15C29.9512 12.4135 29.2951 9.98022 28.1402 7.85754L27.682 8.69362C27.1283 9.70407 26.3995 10.7373 25.6732 11.6667C25.917 12.7387 26.0466 13.8542 26.0466 15C26.0466 19.1799 24.3329 22.959 21.5701 25.6744L22.9676 27.7056C27.1664 25.0546 29.9512 20.3327 29.9512 15Z" fill="#7A797F"/>
<path d="M14.9838 30C9.85948 30 5.13946 27.4171 2.35778 23.0908L2.09253 22.6783L10.4285 15.6507L20.0226 29.1345L19.4113 29.3328C17.981 29.7755 16.4914 30 14.9838 30Z" fill="#3D9AE3"/>
<path d="M20.0832 29.111L19.0686 27.6581C17.2774 28.7909 15.2234 29.5867 13.0254 29.873C13.6644 29.9562 14.3221 29.9675 14.9838 29.9675C16.7679 29.9675 18.4966 29.6836 20.0832 29.111Z" fill="#1D81CE"/>
<path d="M10.4285 15.6507L13.0315 13.6985L23.0396 27.6601L22.5532 27.9455C21.8659 28.3489 21.1426 28.6991 20.4033 28.9865L20.0225 29.1346L10.4285 15.6507Z" fill="white"/>
<path d="M20.0225 29.1345C21.0889 28.7551 22.1001 28.2589 23.0395 27.6601L21.5972 25.6481C20.8124 26.4234 19.9421 27.1124 19.002 27.7002L20.0225 29.1345Z" fill="#E0E0E3"/>
<path d="M1.83812 22.218C1.42737 21.4728 1.07851 20.688 0.80124 19.8853L0.67749 19.413L18.2375 7.19086L20.8405 9.14314L2.09253 22.6782L1.83812 22.218Z" fill="#FFCE00"/>
<path d="M22.4169 14.6611C21.4962 13.6996 16.9036 8.7576 16.9036 5.88938C16.9036 2.64193 19.5456 0 22.7929 0C26.0403 0 28.6823 2.64193 28.6823 5.88938C28.6823 8.75566 24.0896 13.6992 23.1689 14.6611C22.964 14.8752 22.6218 14.8753 22.4169 14.6611Z" fill="#CD2900"/>
<path d="M22.7928 7.87418C21.3395 7.87418 20.1572 6.69188 20.1572 5.23864C20.1572 3.78539 21.3395 2.60309 22.7928 2.60309C24.2461 2.60309 25.4283 3.78539 25.4283 5.23864C25.4283 6.69188 24.2461 7.87418 22.7928 7.87418Z" fill="#891D00"/>
<path d="M8.47618 10.9328C10.1806 10.9328 11.5673 9.5461 11.5673 7.84167C11.5673 7.57214 11.3488 7.35358 11.0792 7.35358H9.12692C8.85739 7.35358 8.63884 7.57208 8.63884 7.84167C8.63884 8.1112 8.85733 8.32975 9.12692 8.32975H10.5342C10.3134 9.26145 9.47438 9.95667 8.47612 9.95667C7.30999 9.95667 6.36118 9.00786 6.36118 7.84173C6.36118 6.67559 7.30999 5.72678 8.47612 5.72678C8.99175 5.72678 9.48833 5.9144 9.87446 6.25501C10.0767 6.43337 10.3851 6.41397 10.5633 6.21188C10.7417 6.00973 10.7223 5.7013 10.5202 5.523C9.95562 5.02495 9.2297 4.75067 8.47612 4.75067C6.77175 4.75067 5.38501 6.13735 5.38501 7.84178C5.38501 9.54622 6.77175 10.9328 8.47618 10.9328Z" fill="white"/>
</svg>
