<svg width="55" height="55" viewBox="0 0 55 55" fill="#000000" xmlns="http://www.w3.org/2000/svg">
<path d="M16.7578 8.59375C17.3511 8.59375 17.832 8.11281 17.832 7.51953C17.832 6.92626 17.3511 6.44531 16.7578 6.44531C16.1645 6.44531 15.6836 6.92626 15.6836 7.51953C15.6836 8.11281 16.1645 8.59375 16.7578 8.59375Z" />
<path d="M12.4609 8.59375C13.0542 8.59375 13.5352 8.11281 13.5352 7.51953C13.5352 6.92626 13.0542 6.44531 12.4609 6.44531C11.8677 6.44531 11.3867 6.92626 11.3867 7.51953C11.3867 8.11281 11.8677 8.59375 12.4609 8.59375Z" />
<path d="M21.0547 8.59375C21.648 8.59375 22.1289 8.11281 22.1289 7.51953C22.1289 6.92626 21.648 6.44531 21.0547 6.44531C20.4614 6.44531 19.9805 6.92626 19.9805 7.51953C19.9805 8.11281 20.4614 8.59375 21.0547 8.59375Z" />
<path d="M8.16406 8.59375C8.75734 8.59375 9.23828 8.11281 9.23828 7.51953C9.23828 6.92626 8.75734 6.44531 8.16406 6.44531C7.57079 6.44531 7.08984 6.92626 7.08984 7.51953C7.08984 8.11281 7.57079 8.59375 8.16406 8.59375Z" />
<path d="M53.9258 50.5957H52.207V38.7793H52.8516C53.4449 38.7793 53.9258 38.2984 53.9258 37.7051C53.9258 37.1118 53.4449 36.6309 52.8516 36.6309H52.207V30.1855C52.207 27.2239 49.7976 24.8145 46.8359 24.8145H37.8236L35.0195 23.132V17.2949C35.0195 16.3713 34.7143 15.4558 34.1602 14.7168L31.582 11.2793C31.3791 11.0088 31.0607 10.8496 30.7227 10.8496H28.2444L25.2831 2.95292C25.1259 2.53365 24.7251 2.25586 24.2773 2.25586H3.86719C3.2739 2.25586 2.79297 2.73679 2.79297 3.33008V22.666H2.14844C1.55515 22.666 1.07422 23.1469 1.07422 23.7402C1.07422 24.3335 1.55515 24.8145 2.14844 24.8145H2.79297V36.6309H2.14844C1.55515 36.6309 1.07422 37.1118 1.07422 37.7051C1.07422 38.2984 1.55515 38.7793 2.14844 38.7793H2.79297V50.5957H1.07422C0.480928 50.5957 0 51.0766 0 51.6699C0 52.2632 0.480928 52.7441 1.07422 52.7441H53.9258C54.5191 52.7441 55 52.2632 55 51.6699C55 51.0766 54.5191 50.5957 53.9258 50.5957ZM50.0586 30.1855V36.6309H47.9102V32.334C47.9102 30.557 46.4645 29.1113 44.6875 29.1113C43.3596 29.1113 42.2168 29.9189 41.7241 31.0686C41.7241 31.0686 40.7274 27.6525 40.7173 27.626C40.6297 27.3955 40.5221 27.1738 40.397 26.9629H46.8359C48.6129 26.9629 50.0586 28.4086 50.0586 30.1855ZM43.6133 36.6309V32.334C43.6133 31.7417 44.0952 31.2598 44.6875 31.2598C45.2798 31.2598 45.7617 31.7417 45.7617 32.334V36.6309H43.6133ZM4.94141 4.4043H23.5329L25.9499 10.8496H4.94141V4.4043ZM4.94141 12.998H30.1855L32.4414 16.0059C32.7186 16.3753 32.8711 16.8331 32.8711 17.2949V22.666H30.7227V18.3691C30.7227 16.5922 29.277 15.1465 27.5 15.1465C25.723 15.1465 24.2773 16.5922 24.2773 18.3691V22.666H22.1289V18.3691C22.1289 16.5922 20.6832 15.1465 18.9062 15.1465C17.1293 15.1465 15.6836 16.5922 15.6836 18.3691V22.666H13.5352V18.3691C13.5352 16.5922 12.0895 15.1465 10.3125 15.1465C8.53553 15.1465 7.08984 16.5922 7.08984 18.3691V22.666H4.94141V12.998ZM28.5742 18.3691V22.666H26.4258V18.3691C26.4258 17.7768 26.9077 17.2949 27.5 17.2949C28.0923 17.2949 28.5742 17.7768 28.5742 18.3691ZM19.9805 18.3691V22.666H17.832V18.3691C17.832 17.7768 18.3139 17.2949 18.9062 17.2949C19.4986 17.2949 19.9805 17.7768 19.9805 18.3691ZM11.3867 18.3691V22.666H9.23828V18.3691C9.23828 17.7768 9.72018 17.2949 10.3125 17.2949C10.9048 17.2949 11.3867 17.7768 11.3867 18.3691ZM4.94141 24.8145H32.8711V26.9629C32.8711 27.5548 33.3534 28.0371 33.9453 28.0371C34.5372 28.0371 35.0195 27.5548 35.0195 26.9629V25.6375L37.8057 27.3092C38.2066 27.5498 38.5213 27.9195 38.695 28.3531L41.1071 36.6309H37.8763L37.0487 34.6994C36.879 34.303 36.4912 34.0474 36.0604 34.0474C35.9154 34.0474 35.7726 34.0774 35.6383 34.1354C35.0937 34.3686 34.8401 35.0013 35.0732 35.5459L35.5386 36.6309H30.7227V30.1855C30.7227 28.4086 29.277 26.9629 27.5 26.9629C25.723 26.9629 24.2773 28.4086 24.2773 30.1855V36.6309H22.1289V30.1855C22.1289 28.4086 20.6832 26.9629 18.9062 26.9629C17.1293 26.9629 15.6836 28.4086 15.6836 30.1855V36.6309H13.5352V30.1855C13.5352 28.4086 12.0895 26.9629 10.3125 26.9629C8.53553 26.9629 7.08984 28.4086 7.08984 30.1855V36.6309H4.94141V24.8145ZM28.5742 30.1855V36.6309H26.4258V30.1855C26.4258 29.5932 26.9077 29.1113 27.5 29.1113C28.0923 29.1113 28.5742 29.5932 28.5742 30.1855ZM19.9805 30.1855V36.6309H17.832V30.1855C17.832 29.5932 18.3139 29.1113 18.9062 29.1113C19.4986 29.1113 19.9805 29.5932 19.9805 30.1855ZM11.3867 30.1855V36.6309H9.23828V30.1855C9.23828 29.5932 9.72018 29.1113 10.3125 29.1113C10.9048 29.1113 11.3867 29.5932 11.3867 30.1855ZM11.3867 50.5957H9.23828V44.1504C9.23828 43.5581 9.72018 43.0762 10.3125 43.0762C10.9048 43.0762 11.3867 43.5581 11.3867 44.1504V50.5957ZM19.9805 50.5957H17.832V44.1504C17.832 43.5581 18.3139 43.0762 18.9062 43.0762C19.4986 43.0762 19.9805 43.5581 19.9805 44.1504V50.5957ZM28.5742 50.5957H26.4258V44.1504C26.4258 43.5581 26.9077 43.0762 27.5 43.0762C28.0923 43.0762 28.5742 43.5581 28.5742 44.1504V50.5957ZM37.168 50.5957H35.0195V44.1504C35.0195 43.5581 35.5014 43.0762 36.0938 43.0762C36.6861 43.0762 37.168 43.5581 37.168 44.1504V50.5957ZM45.7617 50.5957H43.6133V44.1504C43.6133 43.5581 44.0952 43.0762 44.6875 43.0762C45.2798 43.0762 45.7617 43.5581 45.7617 44.1504V50.5957ZM50.0586 50.5957H47.9102V44.1504C47.9102 42.3734 46.4645 40.9277 44.6875 40.9277C42.9105 40.9277 41.4648 42.3734 41.4648 44.1504V50.5957H39.3164V44.1504C39.3164 42.3734 37.8707 40.9277 36.0938 40.9277C34.3168 40.9277 32.8711 42.3734 32.8711 44.1504V50.5957H30.7227V44.1504C30.7227 42.3734 29.277 40.9277 27.5 40.9277C25.723 40.9277 24.2773 42.3734 24.2773 44.1504V50.5957H22.1289V44.1504C22.1289 42.3734 20.6832 40.9277 18.9062 40.9277C17.1293 40.9277 15.6836 42.3734 15.6836 44.1504V50.5957H13.5352V44.1504C13.5352 42.3734 12.0895 40.9277 10.3125 40.9277C8.53553 40.9277 7.08984 42.3734 7.08984 44.1504V50.5957H4.94141V38.7793H50.0586V50.5957Z" />
<path d="M34.3686 32.247C34.5146 32.247 34.6564 32.218 34.7918 32.16C35.055 32.0472 35.2591 31.8377 35.3654 31.5724C35.4729 31.306 35.4686 31.0138 35.3558 30.7495C35.186 30.3542 34.7982 30.0985 34.3675 30.0985C34.2225 30.0985 34.0807 30.1275 33.9453 30.1855C33.6811 30.2983 33.478 30.5078 33.3706 30.7742C33.2643 31.0406 33.2686 31.3328 33.3813 31.596C33.5511 31.9913 33.9378 32.247 34.3686 32.247Z" />
</svg>
