<svg width="22" height="28" viewBox="0 0 22 28" fill="#000000" xmlns="http://www.w3.org/2000/svg">
<path d="M11 0C8.08369 0.00344047 5.28779 1.16347 3.22564 3.22563C1.16348 5.28778 0.00345217 8.08367 1.17029e-05 11C-0.00348119 13.3832 0.774992 15.7018 2.21601 17.6C2.21601 17.6 2.51601 17.995 2.56501 18.052L11 28L19.439 18.047C19.483 17.994 19.784 17.6 19.784 17.6L19.785 17.597C21.2253 15.6996 22.0034 13.3821 22 11C21.9966 8.08367 20.8365 5.28778 18.7744 3.22563C16.7122 1.16347 13.9163 0.00344047 11 0V0ZM9.87501 5H12.125V14H9.87501V5ZM11 20C10.7033 20 10.4133 19.912 10.1667 19.7472C9.91998 19.5824 9.72772 19.3481 9.61419 19.074C9.50066 18.7999 9.47096 18.4983 9.52883 18.2074C9.58671 17.9164 9.72957 17.6491 9.93935 17.4393C10.1491 17.2296 10.4164 17.0867 10.7074 17.0288C10.9983 16.9709 11.2999 17.0007 11.574 17.1142C11.8481 17.2277 12.0824 17.42 12.2472 17.6666C12.412 17.9133 12.5 18.2033 12.5 18.5C12.5 18.8978 12.342 19.2794 12.0607 19.5607C11.7794 19.842 11.3978 20 11 20Z" fill="#000000"/>
</svg>
