<svg width="186" height="231" viewBox="0 0 186 231" fill="none" xmlns="http://www.w3.org/2000/svg">
<path d="M14.4321 163.841C14.4321 169.433 14.4321 172.929 14.4321 174.328C14.4321 174.597 14.6461 174.815 14.9116 174.819C71.2388 175.608 102.4 176 108.401 176C136.954 176 160.103 153.058 160.103 124.754C160.103 96.4493 136.954 73.5071 108.401 73.5071C102.262 73.5071 53.1474 73.5071 47.0046 73.5071C38.0837 73.5071 30.8511 66.3379 30.8511 57.4923C30.8511 53.335 32.4482 49.5463 35.0678 46.7008C38.0203 43.4908 42.2767 41.4775 47.0046 41.4775C51.3164 41.4775 84.7766 41.4775 147.393 41.4775V31.8671C147.393 23.5407 147.393 18.3332 147.393 16.2526C147.393 16.0306 147.215 15.8523 146.997 15.8523C126.995 15.8523 53.4684 15.8523 47.0046 15.8523C23.8048 15.8523 5 34.4946 5 57.4923C5 80.49 23.8048 99.1283 47.0046 99.1283C53.1474 99.1283 102.262 99.1283 108.401 99.1283C122.679 99.1283 134.252 110.601 134.252 124.754C134.252 138.906 122.679 150.379 108.401 150.379C103.447 150.379 72.1225 150.379 14.4321 150.379V163.841Z" fill="#011627"/>
<path d="M29.6304 39.4326C32.5393 36.9398 35.9753 35.1366 39.6808 34.1577C39.5183 33.5434 38.2343 28.6411 38.0718 28.0269C33.439 29.2475 29.143 31.5025 25.5049 34.6214C26.3292 35.5844 28.8061 38.4695 29.6304 39.4326Z" fill="#FF9F1C"/>
<path d="M77.4409 26.9885H90.3209V33.3294H77.4409V26.9885Z" fill="#FF9F1C"/>
<path d="M66.8557 84.0567H79.7357V90.3976H66.8557V84.0567Z" fill="#FF9F1C"/>
<path d="M53.9678 90.3977V84.0568C49.2676 84.0568 46.6559 84.0568 46.1368 84.0568C44.6387 84.0568 43.1447 83.926 41.6664 83.6684C41.5594 84.2906 40.6757 89.284 40.5647 89.9102C42.4036 90.2352 44.2662 90.3977 46.1368 90.3977C47.179 90.3977 49.7907 90.3977 53.9678 90.3977Z" fill="#FF9F1C"/>
<path d="M92.6155 84.0567H105.499V90.3976H92.6155V84.0567Z" fill="#FF9F1C"/>
<path d="M31.2355 79.2218C28.1364 76.9629 25.5842 74.0381 23.7691 70.6616C23.2103 70.9628 18.7399 73.3604 18.1812 73.6616C20.452 77.8744 23.6383 81.5283 27.5062 84.35C28.2513 83.3236 30.859 79.737 31.2355 79.2218Z" fill="#FF9F1C"/>
<path d="M17.0637 46.0113C15.32 50.01 14.4204 54.3297 14.4322 58.6931C14.4322 59.1211 14.4323 59.5451 14.456 59.9613C15.0901 59.9375 20.1629 59.7274 20.797 59.7037C20.7732 59.3708 20.7732 59.0339 20.7732 58.6931C20.7613 55.2016 21.4786 51.7498 22.8776 48.5476C21.7125 48.0403 18.2289 46.5185 17.0637 46.0113Z" fill="#FF9F1C"/>
<path d="M51.677 26.9885H64.5571V33.3294H51.677V26.9885Z" fill="#FF9F1C"/>
<path d="M97.9973 160.148V166.489C103.022 166.489 105.816 166.489 106.375 166.489C108 166.489 109.621 166.394 111.238 166.203C111.163 165.573 110.568 160.536 110.497 159.906C109.126 160.068 107.75 160.148 106.375 160.148C105.258 160.148 102.464 160.148 97.9973 160.148Z" fill="#FF9F1C"/>
<path d="M72.2334 160.148H85.1174V166.489H72.2334V160.148Z" fill="#FF9F1C"/>
<path d="M46.4695 160.148H59.3534V166.489H46.4695V160.148Z" fill="#FF9F1C"/>
<path d="M135.579 106.21C137.743 109.508 139.324 113.154 140.256 116.99C140.874 116.839 145.8 115.638 146.418 115.488C145.313 110.958 143.446 106.646 140.886 102.747C139.828 103.44 136.641 105.517 135.579 106.21Z" fill="#FF9F1C"/>
<path d="M124.558 162.288C128.743 160.223 132.544 157.465 135.805 154.124C135.353 153.68 131.727 150.129 131.275 149.685C128.517 152.507 125.299 154.837 121.76 156.581C122.319 157.722 124.281 161.717 124.558 162.288Z" fill="#FF9F1C"/>
<path d="M131.446 92.5615C127.752 89.716 123.595 87.5244 119.164 86.0819C118.966 86.6843 117.393 91.5034 117.198 92.1058C120.948 93.3303 124.459 95.1851 127.586 97.5906C128.355 96.584 130.673 93.5681 131.446 92.5615Z" fill="#FF9F1C"/>
<path d="M143.723 142.726C145.705 138.501 146.945 133.968 147.393 129.323C146.763 129.26 141.714 128.772 141.084 128.709C140.704 132.636 139.653 136.468 137.981 140.039C139.13 140.574 142.574 142.191 143.723 142.726Z" fill="#FF9F1C"/>
<path d="M103.201 26.9885H116.081V33.3294H103.201V26.9885Z" fill="#FF9F1C"/>
<path d="M128.969 26.9885H141.849V33.3294H128.969V26.9885Z" fill="#FF9F1C"/>
<path d="M20.5513 160.148H33.4312V166.489H20.5513V160.148Z" fill="#FF9F1C"/>
<path d="M151.725 17.6159C148.749 22.7401 145.142 27.472 140.997 31.7046C136.851 27.472 133.249 22.7401 130.273 17.6159C129.349 15.995 128.802 14.1918 128.668 12.3291C128.668 5.52056 134.188 0 140.997 0C147.809 0 153.326 5.52056 153.326 12.3291C153.195 14.1918 152.648 15.995 151.725 17.6159Z" fill="#2EC4B6"/>
<path d="M140.997 7.05029C138.08 7.05029 135.714 9.41624 135.714 12.337C135.714 15.2538 138.08 17.6198 140.997 17.6198C143.917 17.6198 146.283 15.2538 146.283 12.337C146.283 9.41624 143.917 7.05029 140.997 7.05029Z" fill="#FDFFFC"/>
<path d="M145.067 8.99219C146.918 11.2353 146.601 14.5563 144.357 16.4071C142.507 17.9329 139.855 18.0161 137.913 16.6092C136.079 18.1271 134.129 19.4983 132.084 20.715C134.731 24.6265 137.715 28.3042 140.997 31.7045C145.142 27.472 148.749 22.7401 151.725 17.6158C152.648 15.9949 153.195 14.1917 153.326 12.3291C153.334 8.58796 151.63 5.04497 148.705 2.71072C147.706 4.92212 146.49 7.02651 145.067 8.99219Z" fill="#229186"/>
<path d="M145.269 15.456C146.688 13.5101 146.605 10.8469 145.067 8.99219C143.018 11.8258 140.612 14.3859 137.914 16.6092C140.264 18.3213 143.557 17.8061 145.269 15.456Z" fill="#CACCC9"/>
<path d="M49.7311 140.844H19.4453V119.213H49.7311L43.2396 130.028L49.7311 140.844Z" fill="#E71D36"/>
<path d="M19.4453 119.213H23.773V155.986H19.4453V119.213Z" fill="#FF9F1C"/>
<path d="M15.246 192.6C18.942 192.6 21.98 193.356 24.36 194.868C26.74 196.352 27.958 198.564 28.014 201.504V202.008H19.32V201.84C19.32 201 19.012 200.3 18.396 199.74C17.78 199.18 16.842 198.9 15.582 198.9C14.35 198.9 13.398 199.082 12.726 199.446C12.082 199.81 11.76 200.258 11.76 200.79C11.76 201.546 12.208 202.106 13.104 202.47C14 202.834 15.442 203.212 17.43 203.604C19.754 204.08 21.658 204.584 23.142 205.116C24.654 205.62 25.97 206.46 27.09 207.636C28.21 208.812 28.784 210.408 28.812 212.424C28.812 215.84 27.65 218.374 25.326 220.026C23.03 221.678 19.95 222.504 16.086 222.504C11.578 222.504 8.064 221.748 5.544 220.236C3.052 218.724 1.806 216.05 1.806 212.214H10.584C10.584 213.67 10.962 214.65 11.718 215.154C12.474 215.63 13.65 215.868 15.246 215.868C16.422 215.868 17.388 215.742 18.144 215.49C18.928 215.238 19.32 214.72 19.32 213.936C19.32 213.236 18.886 212.718 18.018 212.382C17.178 212.018 15.792 211.64 13.86 211.248C11.508 210.744 9.562 210.226 8.022 209.694C6.482 209.134 5.138 208.224 3.99 206.964C2.842 205.704 2.268 203.996 2.268 201.84C2.268 198.676 3.486 196.352 5.922 194.868C8.386 193.356 11.494 192.6 15.246 192.6ZM47.4465 199.32C50.4425 199.32 52.7525 200.3 54.3765 202.26C56.0005 204.22 56.8125 207.118 56.8125 210.954C56.8125 214.762 56.0005 217.646 54.3765 219.606C52.7525 221.538 50.4425 222.504 47.4465 222.504C44.8705 222.504 42.7985 221.664 41.2305 219.984V230.274H32.8725V199.824H39.6765L40.3905 202.974C42.0145 200.538 44.3665 199.32 47.4465 199.32ZM44.8425 205.494C43.6105 205.494 42.6865 205.928 42.0705 206.796C41.4545 207.664 41.1465 208.798 41.1465 210.198V211.584C41.1465 212.984 41.4545 214.132 42.0705 215.028C42.6865 215.896 43.6105 216.33 44.8425 216.33C47.2505 216.33 48.4545 214.888 48.4545 212.004V209.778C48.4545 206.922 47.2505 205.494 44.8425 205.494ZM72.3102 199.32C76.2022 199.32 79.2542 200.314 81.4662 202.302C83.7062 204.262 84.8262 207.132 84.8262 210.912C84.8262 214.692 83.7062 217.576 81.4662 219.564C79.2542 221.524 76.2022 222.504 72.3102 222.504C68.4182 222.504 65.3662 221.524 63.1542 219.564C60.9422 217.604 59.8362 214.72 59.8362 210.912C59.8362 207.104 60.9422 204.22 63.1542 202.26C65.3662 200.3 68.4182 199.32 72.3102 199.32ZM72.3102 204.99C69.5662 204.99 68.1942 206.572 68.1942 209.736V212.13C68.1942 215.266 69.5662 216.834 72.3102 216.834C75.0822 216.834 76.4682 215.266 76.4682 212.13V209.736C76.4682 206.572 75.0822 204.99 72.3102 204.99ZM103.642 199.824V205.494H98.9379V213.936C98.9379 214.944 99.1059 215.686 99.4419 216.162C99.7779 216.61 100.394 216.834 101.29 216.834H103.642V221.748C102.97 221.972 102.102 222.154 101.038 222.294C99.9739 222.434 99.0499 222.504 98.2659 222.504C95.8019 222.504 93.8979 222.056 92.5539 221.16C91.2379 220.264 90.5799 218.738 90.5799 216.582V205.494H87.4719V199.824H90.9159L92.7219 193.104H98.9379V199.824H103.642Z" fill="#011627"/>
<path d="M123.304 199.824V205.494H118.6V213.936C118.6 214.944 118.768 215.686 119.104 216.162C119.44 216.61 120.056 216.834 120.952 216.834H123.304V221.748C122.632 221.972 121.764 222.154 120.7 222.294C119.636 222.434 118.712 222.504 117.928 222.504C115.464 222.504 113.56 222.056 112.216 221.16C110.9 220.264 110.242 218.738 110.242 216.582V205.494H107.134V199.824H110.578L112.384 193.104H118.6V199.824H123.304ZM140.664 199.278C141.308 199.278 141.882 199.362 142.386 199.53C142.89 199.67 143.142 199.754 143.142 199.782V206.796H140.454C138.718 206.796 137.458 207.244 136.674 208.14C135.918 209.036 135.54 210.366 135.54 212.13V222H127.182V199.824H134.028L134.574 203.184C135.078 201.896 135.876 200.93 136.968 200.286C138.06 199.614 139.292 199.278 140.664 199.278ZM146.138 197.22V191.55H154.496V197.22H146.138ZM146.138 222V199.824H154.496V222H146.138ZM174.447 199.32C177.443 199.32 179.753 200.3 181.377 202.26C183.001 204.22 183.813 207.118 183.813 210.954C183.813 214.762 183.001 217.646 181.377 219.606C179.753 221.538 177.443 222.504 174.447 222.504C171.871 222.504 169.799 221.664 168.231 219.984V230.274H159.873V199.824H166.677L167.391 202.974C169.015 200.538 171.367 199.32 174.447 199.32ZM171.843 205.494C170.611 205.494 169.687 205.928 169.071 206.796C168.455 207.664 168.147 208.798 168.147 210.198V211.584C168.147 212.984 168.455 214.132 169.071 215.028C169.687 215.896 170.611 216.33 171.843 216.33C174.251 216.33 175.455 214.888 175.455 212.004V209.778C175.455 206.922 174.251 205.494 171.843 205.494Z" fill="#FF9F1C"/>
</svg>
