<?xml version="1.0" encoding="UTF-8" standalone="no"?>
<!DOCTYPE svg PUBLIC "-//W3C//DTD SVG 1.1//EN" "http://www.w3.org/Graphics/SVG/1.1/DTD/svg11.dtd">
<svg version="1.1" xmlns="http://www.w3.org/2000/svg" xmlns:xlink="http://www.w3.org/1999/xlink" preserveAspectRatio="xMidYMid meet" viewBox="0 0 640 640" width="640" height="640"><defs><path d="M137.9 466.07C137.9 480.18 137.9 489 137.9 492.53C137.9 493.21 138.44 493.76 139.11 493.77C281.24 495.76 359.87 496.75 375.01 496.75C447.06 496.75 505.47 438.86 505.47 367.44C505.47 296.02 447.06 238.13 375.01 238.13C359.52 238.13 235.59 238.13 220.09 238.13C197.58 238.13 179.33 220.04 179.33 197.72C179.33 187.23 183.36 177.67 189.97 170.49C197.42 162.39 208.16 157.31 220.09 157.31C230.97 157.31 315.4 157.31 473.4 157.31L473.4 133.06C473.4 112.05 473.4 98.91 473.4 93.66C473.4 93.1 472.95 92.65 472.4 92.65C421.93 92.65 236.4 92.65 220.09 92.65C161.55 92.65 114.1 139.69 114.1 197.72C114.1 255.75 161.55 302.78 220.09 302.78C235.59 302.78 359.52 302.78 375.01 302.78C411.04 302.78 440.24 331.73 440.24 367.44C440.24 403.15 411.04 432.1 375.01 432.1C362.51 432.1 283.47 432.1 137.9 432.1L137.9 466.07Z" id="a2KEwqX4z0"></path><path d="M176.25 152.15C183.59 145.86 192.26 141.31 201.61 138.84C201.2 137.29 197.96 124.92 197.55 123.37C185.86 126.45 175.02 132.14 165.84 140.01C167.92 142.44 174.17 149.72 176.25 152.15Z" id="ac5Okd5XOa"></path><path d="M296.89 120.75L329.39 120.75L329.39 136.75L296.89 136.75L296.89 120.75Z" id="a11iv8vyfP"></path><path d="M270.18 264.75L302.68 264.75L302.68 280.75L270.18 280.75L270.18 264.75Z" id="bdaJzprKS"></path><path d="M237.66 280.75L237.66 264.75C225.8 264.75 219.21 264.75 217.9 264.75C214.12 264.75 210.35 264.42 206.62 263.77C206.35 265.34 204.12 277.94 203.84 279.52C208.48 280.34 213.18 280.75 217.9 280.75C220.53 280.75 227.12 280.75 237.66 280.75Z" id="h1vH08kAvk"></path><path d="M335.18 264.75L367.69 264.75L367.69 280.75L335.18 280.75L335.18 264.75Z" id="a21TcHKkwH"></path><path d="M180.3 252.55C172.48 246.85 166.04 239.47 161.46 230.95C160.05 231.71 148.77 237.76 147.36 238.52C153.09 249.15 161.13 258.37 170.89 265.49C172.77 262.9 179.35 253.85 180.3 252.55Z" id="a4tOyyJuoi"></path><path d="M144.54 168.75C140.14 178.84 137.87 189.74 137.9 200.75C137.9 201.83 137.9 202.9 137.96 203.95C139.56 203.89 152.36 203.36 153.96 203.3C153.9 202.46 153.9 201.61 153.9 200.75C153.87 191.94 155.68 183.23 159.21 175.15C156.27 173.87 147.48 170.03 144.54 168.75Z" id="cl4o26l0A"></path><path d="M231.88 120.75L264.38 120.75L264.38 136.75L231.88 136.75L231.88 120.75Z" id="aYUVP2syl"></path><path d="M348.76 456.75L348.76 472.75C361.44 472.75 368.49 472.75 369.9 472.75C374 472.75 378.09 472.51 382.17 472.03C381.98 470.44 380.48 457.73 380.3 456.14C376.84 456.55 373.37 456.75 369.9 456.75C367.08 456.75 360.03 456.75 348.76 456.75Z" id="e2IMgj1QDZ"></path><path d="M283.75 456.75L316.26 456.75L316.26 472.75L283.75 472.75L283.75 456.75Z" id="c1tWg7emAC"></path><path d="M218.74 456.75L251.25 456.75L251.25 472.75L218.74 472.75L218.74 456.75Z" id="bvSVsbeFB"></path><path d="M443.59 320.65C449.05 328.97 453.04 338.17 455.39 347.85C456.95 347.47 469.38 344.44 470.94 344.06C468.15 332.63 463.44 321.75 456.98 311.91C454.31 313.66 446.27 318.9 443.59 320.65Z" id="ac5bJG78i"></path><path d="M415.78 462.15C426.34 456.94 435.93 449.98 444.16 441.55C443.02 440.43 433.87 431.47 432.73 430.35C425.77 437.47 417.65 443.35 408.72 447.75C410.13 450.63 415.08 460.71 415.78 462.15Z" id="at00beJBO"></path><path d="M433.16 286.21C423.84 279.03 413.35 273.5 402.17 269.86C401.67 271.38 397.7 283.54 397.21 285.06C406.67 288.15 415.53 292.83 423.42 298.9C425.36 296.36 431.21 288.75 433.16 286.21Z" id="d1OhOkMYqb"></path><path d="M464.14 412.79C469.14 402.13 472.27 390.69 473.4 378.97C471.81 378.81 459.07 377.58 457.48 377.42C456.52 387.33 453.87 397 449.65 406.01C452.55 407.36 461.24 411.44 464.14 412.79Z" id="e3zzq2QjmR"></path><path d="M361.89 120.75L394.39 120.75L394.39 136.75L361.89 136.75L361.89 120.75Z" id="b1IVkzmXHC"></path><path d="M426.91 120.75L459.41 120.75L459.41 136.75L426.91 136.75L426.91 120.75Z" id="as6kC43wm"></path><path d="M153.34 456.75L185.84 456.75L185.84 472.75L153.34 472.75L153.34 456.75Z" id="aenku3sY8"></path><path d="M484.33 97.1C476.82 110.03 467.72 121.97 457.26 132.65C446.8 121.97 437.71 110.03 430.2 97.1C427.87 93.01 426.49 88.46 426.15 83.76C426.15 66.58 440.08 52.65 457.26 52.65C474.45 52.65 488.37 66.58 488.37 83.76C488.04 88.46 486.66 93.01 484.33 97.1Z" id="d4cUHZfO8"></path><path d="M457.26 70.44C449.9 70.44 443.93 76.41 443.93 83.78C443.93 91.14 449.9 97.11 457.26 97.11C464.63 97.11 470.6 91.14 470.6 83.78C470.6 76.41 464.63 70.44 457.26 70.44Z" id="c1uXjJ03Sq"></path><path d="M467.53 75.34C472.2 81 471.4 89.38 465.74 94.05C461.07 97.9 454.38 98.11 449.48 94.56C444.85 98.39 439.93 101.85 434.77 104.92C441.45 114.79 448.98 124.07 457.26 132.65C467.72 121.97 476.82 110.03 484.33 97.1C486.66 93.01 488.04 88.46 488.37 83.76C488.39 74.32 484.09 65.38 476.71 59.49C474.19 65.07 471.12 70.38 467.53 75.34Z" id="a6ksTBiepq"></path><path d="M468.04 91.65C471.62 86.74 471.41 80.02 467.53 75.34C462.36 82.49 456.29 88.95 449.48 94.56C455.41 98.88 463.72 97.58 468.04 91.65Z" id="b31wlxMok1"></path><path d="M226.97 408.04L150.55 408.04L150.55 353.46L226.97 353.46L210.59 380.75L226.97 408.04Z" id="b2T6nW7Cc"></path><path d="M150.55 353.46L161.47 353.46L161.47 446.25L150.55 446.25L150.55 353.46Z" id="b1mRp48MI"></path></defs><g><g><g><use xlink:href="#a2KEwqX4z0" opacity="1" fill="#011627" fill-opacity="1"></use><g><use xlink:href="#a2KEwqX4z0" opacity="1" fill-opacity="0" stroke="#000000" stroke-width="1" stroke-opacity="0"></use></g></g><g><use xlink:href="#ac5Okd5XOa" opacity="1" fill="#ff9f1c" fill-opacity="1"></use><g><use xlink:href="#ac5Okd5XOa" opacity="1" fill-opacity="0" stroke="#000000" stroke-width="1" stroke-opacity="0"></use></g></g><g><use xlink:href="#a11iv8vyfP" opacity="1" fill="#ff9f1c" fill-opacity="1"></use><g><use xlink:href="#a11iv8vyfP" opacity="1" fill-opacity="0" stroke="#000000" stroke-width="1" stroke-opacity="0"></use></g></g><g><use xlink:href="#bdaJzprKS" opacity="1" fill="#ff9f1c" fill-opacity="1"></use><g><use xlink:href="#bdaJzprKS" opacity="1" fill-opacity="0" stroke="#000000" stroke-width="1" stroke-opacity="0"></use></g></g><g><use xlink:href="#h1vH08kAvk" opacity="1" fill="#ff9f1c" fill-opacity="1"></use><g><use xlink:href="#h1vH08kAvk" opacity="1" fill-opacity="0" stroke="#000000" stroke-width="1" stroke-opacity="0"></use></g></g><g><use xlink:href="#a21TcHKkwH" opacity="1" fill="#ff9f1c" fill-opacity="1"></use><g><use xlink:href="#a21TcHKkwH" opacity="1" fill-opacity="0" stroke="#000000" stroke-width="1" stroke-opacity="0"></use></g></g><g><use xlink:href="#a4tOyyJuoi" opacity="1" fill="#ff9f1c" fill-opacity="1"></use><g><use xlink:href="#a4tOyyJuoi" opacity="1" fill-opacity="0" stroke="#000000" stroke-width="1" stroke-opacity="0"></use></g></g><g><use xlink:href="#cl4o26l0A" opacity="1" fill="#ff9f1c" fill-opacity="1"></use><g><use xlink:href="#cl4o26l0A" opacity="1" fill-opacity="0" stroke="#000000" stroke-width="1" stroke-opacity="0"></use></g></g><g><use xlink:href="#aYUVP2syl" opacity="1" fill="#ff9f1c" fill-opacity="1"></use><g><use xlink:href="#aYUVP2syl" opacity="1" fill-opacity="0" stroke="#000000" stroke-width="1" stroke-opacity="0"></use></g></g><g><use xlink:href="#e2IMgj1QDZ" opacity="1" fill="#ff9f1c" fill-opacity="1"></use><g><use xlink:href="#e2IMgj1QDZ" opacity="1" fill-opacity="0" stroke="#000000" stroke-width="1" stroke-opacity="0"></use></g></g><g><use xlink:href="#c1tWg7emAC" opacity="1" fill="#ff9f1c" fill-opacity="1"></use><g><use xlink:href="#c1tWg7emAC" opacity="1" fill-opacity="0" stroke="#000000" stroke-width="1" stroke-opacity="0"></use></g></g><g><use xlink:href="#bvSVsbeFB" opacity="1" fill="#ff9f1c" fill-opacity="1"></use><g><use xlink:href="#bvSVsbeFB" opacity="1" fill-opacity="0" stroke="#000000" stroke-width="1" stroke-opacity="0"></use></g></g><g><use xlink:href="#ac5bJG78i" opacity="1" fill="#ff9f1c" fill-opacity="1"></use><g><use xlink:href="#ac5bJG78i" opacity="1" fill-opacity="0" stroke="#000000" stroke-width="1" stroke-opacity="0"></use></g></g><g><use xlink:href="#at00beJBO" opacity="1" fill="#ff9f1c" fill-opacity="1"></use><g><use xlink:href="#at00beJBO" opacity="1" fill-opacity="0" stroke="#000000" stroke-width="1" stroke-opacity="0"></use></g></g><g><use xlink:href="#d1OhOkMYqb" opacity="1" fill="#ff9f1c" fill-opacity="1"></use><g><use xlink:href="#d1OhOkMYqb" opacity="1" fill-opacity="0" stroke="#000000" stroke-width="1" stroke-opacity="0"></use></g></g><g><use xlink:href="#e3zzq2QjmR" opacity="1" fill="#ff9f1c" fill-opacity="1"></use><g><use xlink:href="#e3zzq2QjmR" opacity="1" fill-opacity="0" stroke="#000000" stroke-width="1" stroke-opacity="0"></use></g></g><g><use xlink:href="#b1IVkzmXHC" opacity="1" fill="#ff9f1c" fill-opacity="1"></use><g><use xlink:href="#b1IVkzmXHC" opacity="1" fill-opacity="0" stroke="#000000" stroke-width="1" stroke-opacity="0"></use></g></g><g><use xlink:href="#as6kC43wm" opacity="1" fill="#ff9f1c" fill-opacity="1"></use><g><use xlink:href="#as6kC43wm" opacity="1" fill-opacity="0" stroke="#000000" stroke-width="1" stroke-opacity="0"></use></g></g><g><use xlink:href="#aenku3sY8" opacity="1" fill="#ff9f1c" fill-opacity="1"></use><g><use xlink:href="#aenku3sY8" opacity="1" fill-opacity="0" stroke="#000000" stroke-width="1" stroke-opacity="0"></use></g></g><g><use xlink:href="#d4cUHZfO8" opacity="1" fill="#2ec4b6" fill-opacity="1"></use><g><use xlink:href="#d4cUHZfO8" opacity="1" fill-opacity="0" stroke="#000000" stroke-width="1" stroke-opacity="0"></use></g></g><g><use xlink:href="#c1uXjJ03Sq" opacity="1" fill="#fdfffc" fill-opacity="1"></use><g><use xlink:href="#c1uXjJ03Sq" opacity="1" fill-opacity="0" stroke="#000000" stroke-width="1" stroke-opacity="0"></use></g></g><g><use xlink:href="#a6ksTBiepq" opacity="1" fill="#229186" fill-opacity="1"></use><g><use xlink:href="#a6ksTBiepq" opacity="1" fill-opacity="0" stroke="#000000" stroke-width="1" stroke-opacity="0"></use></g></g><g><use xlink:href="#b31wlxMok1" opacity="1" fill="#caccc9" fill-opacity="1"></use><g><use xlink:href="#b31wlxMok1" opacity="1" fill-opacity="0" stroke="#000000" stroke-width="1" stroke-opacity="0"></use></g></g><g><use xlink:href="#b2T6nW7Cc" opacity="1" fill="#e71d36" fill-opacity="1"></use><g><use xlink:href="#b2T6nW7Cc" opacity="1" fill-opacity="0" stroke="#000000" stroke-width="1" stroke-opacity="0"></use></g></g><g><use xlink:href="#b1mRp48MI" opacity="1" fill="#ff9f1c" fill-opacity="1"></use><g><use xlink:href="#b1mRp48MI" opacity="1" fill-opacity="0" stroke="#000000" stroke-width="1" stroke-opacity="0"></use></g></g></g></g></svg>