<svg width="100" height="100" viewBox="0 0 100 100" fill="#000" xmlns="http://www.w3.org/2000/svg">
<g clip-path="url(#clip0_40_682)">
<path d="M44.3981 79.2174L43.1485 78.964C41.4993 78.6297 41.4993 76.2725 43.1485 75.9381L44.3981 75.6848C47.5463 75.0465 50.0069 72.5859 50.6452 69.4377L50.8985 68.1881C51.2329 66.5389 53.5901 66.5389 53.9245 68.1881L54.1778 69.4377C54.8161 72.5859 57.2766 75.0465 60.4249 75.6848L61.6745 75.9381C63.3237 76.2725 63.3237 78.6297 61.6745 78.964L60.4249 79.2174C57.2766 79.8556 54.8161 82.3162 54.1778 85.4644L53.9245 86.714C53.5901 88.3633 51.2329 88.3633 50.8985 86.714L50.6452 85.4644C50.0069 82.3162 47.5463 79.8556 44.3981 79.2174Z" />
<path d="M22.4214 87.0547C23.2548 87.0547 23.9304 86.3791 23.9304 85.5457V81.4598C23.9304 80.6264 23.2548 79.9508 22.4214 79.9508C21.588 79.9508 20.9124 80.6264 20.9124 81.4598V85.5457C20.9124 86.3791 21.588 87.0547 22.4214 87.0547Z" />
<path d="M22.4214 98.0547C23.2548 98.0547 23.9304 97.3791 23.9304 96.5457V92.4598C23.9304 91.6264 23.2548 90.9508 22.4214 90.9508C21.588 90.9508 20.9124 91.6264 20.9124 92.4598V96.5457C20.9124 97.3793 21.588 98.0547 22.4214 98.0547Z" />
<path d="M14.8783 90.5119H18.9643C19.7977 90.5119 20.4733 89.8363 20.4733 89.0029C20.4733 88.1695 19.7977 87.494 18.9643 87.494H14.8783C14.0449 87.494 13.3694 88.1695 13.3694 89.0029C13.3694 89.8363 14.0449 90.5119 14.8783 90.5119Z" />
<path d="M25.8785 90.5119H29.9644C30.7978 90.5119 31.4734 89.8363 31.4734 89.0029C31.4734 88.1695 30.7978 87.494 29.9644 87.494H25.8785C25.0451 87.494 24.3695 88.1695 24.3695 89.0029C24.3695 89.8363 25.0451 90.5119 25.8785 90.5119Z" />
<path d="M90.948 68.041C91.7814 68.041 92.457 67.3654 92.457 66.532V62.4461C92.457 61.6127 91.7814 60.9371 90.948 60.9371C90.1146 60.9371 89.4391 61.6127 89.4391 62.4461V66.532C89.4391 67.3654 90.1146 68.041 90.948 68.041Z" />
<path d="M90.948 79.0412C91.7814 79.0412 92.457 78.3656 92.457 77.5322V73.4463C92.457 72.6129 91.7814 71.9373 90.948 71.9373C90.1146 71.9373 89.4391 72.6129 89.4391 73.4463V77.5322C89.4391 78.3656 90.1146 79.0412 90.948 79.0412Z" />
<path d="M83.4048 71.4981H87.4908C88.3242 71.4981 88.9998 70.8225 88.9998 69.9891C88.9998 69.1557 88.3242 68.4801 87.4908 68.4801H83.4048C82.5714 68.4801 81.8958 69.1557 81.8958 69.9891C81.8958 70.8225 82.5714 71.4981 83.4048 71.4981Z" />
<path d="M94.4051 71.4981H98.491C99.3244 71.4981 100 70.8225 100 69.9891C100 69.1557 99.3244 68.4801 98.491 68.4801H94.4051C93.5717 68.4801 92.8961 69.1557 92.8961 69.9891C92.8961 70.8225 93.5717 71.4981 94.4051 71.4981Z" />
<path d="M22.2259 9.04923C23.0593 9.04923 23.7349 8.37365 23.7349 7.54025V3.45431C23.7349 2.62091 23.0593 1.94533 22.2259 1.94533C21.3925 1.94533 20.7169 2.62091 20.7169 3.45431V7.54025C20.7169 8.37345 21.3923 9.04923 22.2259 9.04923Z" />
<path d="M22.2259 20.0492C23.0593 20.0492 23.7349 19.3736 23.7349 18.5402V14.4545C23.7349 13.6211 23.0593 12.9455 22.2259 12.9455C21.3925 12.9455 20.7169 13.6211 20.7169 14.4545V18.5404C20.7169 19.3736 21.3923 20.0492 22.2259 20.0492Z" />
<path d="M14.6825 12.5063H18.7685C19.6019 12.5063 20.2775 11.8307 20.2775 10.9973C20.2775 10.1639 19.6019 9.4883 18.7685 9.4883H14.6825C13.8491 9.4883 13.1736 10.1639 13.1736 10.9973C13.1736 11.8307 13.8491 12.5063 14.6825 12.5063Z" />
<path d="M25.6829 12.5063H29.7688C30.6022 12.5063 31.2778 11.8307 31.2778 10.9973C31.2778 10.1639 30.6022 9.4883 29.7688 9.4883H25.6829C24.8495 9.4883 24.1739 10.1639 24.1739 10.9973C24.1739 11.8307 24.8495 12.5063 25.6829 12.5063Z" />
<path d="M48.7535 30.5181L42.7719 29.3054C39.948 28.7328 39.948 24.697 42.7719 24.1244L48.7535 22.9117C54.648 21.7166 59.2549 17.1097 60.45 11.2152L61.6627 5.23356C62.2353 2.40974 66.2711 2.40974 66.8437 5.23356L68.0564 11.2152C69.2515 17.1097 73.8584 21.7166 79.7529 22.9117L85.7345 24.1244C88.5584 24.697 88.5584 28.7328 85.7345 29.3054L79.7529 30.5181C73.8584 31.7132 69.2515 36.3201 68.0564 42.2146L66.8437 48.1963C66.2711 51.0201 62.2353 51.0201 61.6627 48.1963L60.45 42.2146C59.2551 36.3201 54.648 31.7134 48.7535 30.5181Z" />
<path d="M6.22029 51.3312L1.62654 50.3998C-0.54221 49.9601 -0.54221 46.8605 1.62654 46.4209L6.22029 45.4894C10.7472 44.5714 14.2851 41.0337 15.2029 36.5068L16.1344 31.9131C16.574 29.7443 19.6736 29.7443 20.1131 31.9131L21.0445 36.5068C21.9625 41.0337 25.5002 44.5716 30.0271 45.4894L34.6209 46.4209C36.7896 46.8605 36.7896 49.9601 34.6209 50.3998L30.0271 51.3312C25.5002 52.2492 21.9623 55.7869 21.0445 60.3138L20.1131 64.9076C19.6734 67.0763 16.5738 67.0763 16.1344 64.9076L15.2029 60.3138C14.2849 55.7871 10.7468 52.249 6.22029 51.3312Z" />
</g>
</svg>
