<svg width="55" height="55" viewBox="0 0 55 55" fill="#000000" xmlns="http://www.w3.org/2000/svg">
<g clip-path="url(#clip0_103_340)">
<path d="M35.3435 6.79624C34.7907 2.92196 31.4184 0 27.4996 0C24.9794 0 22.5859 1.21614 21.0977 3.25433C20.7938 3.67 20.8847 4.25308 21.3004 4.55705C21.7147 4.85992 22.2991 4.77007 22.6025 4.35386C23.7417 2.79524 25.572 1.86449 27.4993 1.86449C30.4964 1.86449 33.0748 4.09796 33.4976 7.05924C33.5642 7.52434 33.9632 7.85999 34.4196 7.85999C34.463 7.85999 34.5078 7.85671 34.5523 7.85071C35.0619 7.77779 35.4161 7.30559 35.3435 6.79624Z" />
<path d="M48.8074 17.2319L46.0108 12.5708C45.8425 12.2898 45.5391 12.1183 45.2114 12.1183H42.5314C42.0169 12.1183 41.5993 12.5358 41.5993 13.0504C41.5993 13.5649 42.0169 13.9825 42.5314 13.9825H44.6837L46.3617 16.7791H8.63729L10.3153 13.9825H11.3025C11.8171 13.9825 12.2346 13.5649 12.2346 13.0504C12.2346 12.5358 11.8171 12.1183 11.3025 12.1183H9.78762C9.45989 12.1183 9.15647 12.2898 8.98824 12.5708L6.19163 17.2319C6.01875 17.5203 6.01466 17.8789 6.17989 18.1711C6.34512 18.4633 6.65482 18.6441 6.99101 18.6441H48.008C48.3442 18.6441 48.6536 18.4633 48.8191 18.1711C48.9846 17.8789 48.9802 17.5198 48.8074 17.2319Z" />
<path d="M44.1607 8.63643C44.0302 8.42587 43.8218 8.27648 43.5809 8.22022L30.873 5.248C30.6324 5.19147 30.379 5.23353 30.1687 5.36353C29.9589 5.49407 29.8093 5.70245 29.753 5.94333L28.7947 10.0399C28.6772 10.5411 28.9886 11.0425 29.49 11.1594C29.9912 11.2768 30.4931 10.9655 30.61 10.4641L31.3561 7.27554L42.2484 9.82335L40.5369 17.1412C40.4194 17.6424 40.7308 18.1438 41.2322 18.2607C41.304 18.2773 41.3753 18.2853 41.4458 18.2853C41.8691 18.2853 42.2522 17.9952 42.3519 17.5656L44.276 9.34023C44.3328 9.09962 44.2913 8.84618 44.1607 8.63643Z" />
<path d="M27.9925 10.8401L27.1432 3.65607C27.1142 3.41055 26.9889 3.18633 26.7944 3.03339C26.6 2.88045 26.3545 2.81054 26.1078 2.83948L10.5162 4.6824C10.0052 4.74303 9.63983 5.20622 9.70018 5.71775L11.1162 17.6997C11.1725 18.1741 11.5748 18.5229 12.041 18.5229C12.0773 18.5229 12.1147 18.5204 12.1519 18.5163C12.6626 18.4557 13.028 17.9925 12.9679 17.481L11.6611 6.424L25.4013 4.80011L26.1409 11.0583C26.2015 11.5696 26.6625 11.9328 27.1762 11.8749C27.6872 11.8148 28.0526 11.3514 27.9925 10.8401Z" />
<path d="M35.3651 17.3575L33.5148 9.66304C33.4569 9.42298 33.3058 9.21514 33.0953 9.08596C32.8847 8.95788 32.6321 8.91773 32.3904 8.97508L17.3731 12.5866C16.8725 12.7068 16.5644 13.2104 16.6846 13.711L17.6093 17.5569C17.7295 18.058 18.2331 18.3664 18.7335 18.2454C19.2341 18.1252 19.5421 17.6216 19.422 17.121L18.7149 14.1813L31.9196 11.0062L33.5519 17.7939C33.6543 18.2214 34.0367 18.5081 34.4575 18.5081C34.5299 18.5081 34.6031 18.4997 34.6766 18.4819C35.1772 18.3615 35.4852 17.8581 35.3651 17.3575Z" />
<path d="M48.9397 17.6642C48.9141 17.1688 48.505 16.7799 48.0084 16.7799H6.99147C6.49497 16.7799 6.08585 17.1685 6.06018 17.6642L4.19569 54.0201C4.18258 54.2752 4.27489 54.5248 4.45077 54.71C4.62692 54.8949 4.87108 55 5.1267 55H49.8724C50.1277 55 50.3722 54.8951 50.5491 54.71C50.7248 54.5248 50.8171 54.2755 50.8042 54.0201L48.9397 17.6642ZM6.1077 53.1355L7.87661 18.6441H47.1222L48.8911 53.1355H6.1077Z" />
<path d="M34.4911 20.5084C32.9489 20.5084 31.6945 21.7627 31.6945 23.305C31.6945 24.8472 32.9489 26.1016 34.4911 26.1016C36.0334 26.1016 37.2877 24.8472 37.2877 23.305C37.2877 21.7627 36.0334 20.5084 34.4911 20.5084ZM34.4911 24.2373C33.9769 24.2373 33.559 23.8192 33.559 23.3052C33.559 22.7912 33.9771 22.3731 34.4911 22.3731C35.0051 22.3731 35.4232 22.7912 35.4232 23.3052C35.4232 23.8192 35.0051 24.2373 34.4911 24.2373Z" />
<path d="M20.508 20.5084C18.9658 20.5084 17.7114 21.7627 17.7114 23.305C17.7114 24.8472 18.9658 26.1016 20.508 26.1016C22.0503 26.1016 23.3046 24.8472 23.3046 23.305C23.3046 21.7627 22.0503 20.5084 20.508 20.5084ZM20.508 24.2373C19.994 24.2373 19.5759 23.8192 19.5759 23.3052C19.5759 22.7912 19.994 22.3731 20.508 22.3731C21.022 22.3731 21.4401 22.7912 21.4401 23.3052C21.4401 23.8192 21.022 24.2373 20.508 24.2373Z" />
<path d="M34.4911 23.3049H34.4193C33.9048 23.3049 33.4872 23.7225 33.4872 24.2371C33.4872 24.3643 33.5123 24.4859 33.559 24.5965V29.3641C33.559 32.705 30.8408 35.4235 27.4996 35.4235C24.1584 35.4235 21.4402 32.7053 21.4402 29.3641V24.2373C21.4402 23.7228 21.0226 23.3052 20.5081 23.3052C19.9936 23.3052 19.576 23.7228 19.576 24.2373V29.3643C19.576 33.7335 23.1305 37.288 27.4996 37.288C31.8688 37.288 35.4232 33.7335 35.4232 29.3643V24.2373C35.4232 23.7228 35.0057 23.3049 34.4911 23.3049Z" />
</g>
</svg>
