<svg width="55" height="55" viewBox="0 0 55 55" fill="#000000" xmlns="http://www.w3.org/2000/svg">
<path d="M53.1666 16.5V11.7003L47.3165 0H7.68348L1.83331 11.7003V16.5C1.83744 17.8041 2.53605 19.0071 3.66665 19.657V36.6667H1.83331V55H53.1666V36.6667H51.3333V19.657C52.4639 19.0071 53.1625 17.8041 53.1666 16.5ZM46.1835 1.83333L51.3333 12.133V12.8333H47.6666H47.4411L44.2988 1.83333H46.1835ZM42.3921 1.83333L45.5354 12.8333H42.1666H42.0447L40.4736 1.83333H42.3921ZM45.8333 14.6667V16.5C45.8333 17.5126 45.0126 18.3333 44 18.3333C42.9874 18.3333 42.1666 17.5126 42.1666 16.5V14.6667H45.8333ZM36.6666 1.83333H38.6219L40.1931 12.8333H36.6666V1.83333ZM36.6666 14.6667H40.3333V16.5C40.3333 17.5126 39.5126 18.3333 38.5 18.3333C37.4874 18.3333 36.6666 17.5126 36.6666 16.5V14.6667ZM31.1666 1.83333H34.8333V12.8333H31.1666V1.83333ZM31.1666 14.6667H34.8333V16.5C34.8333 17.5126 34.0126 18.3333 33 18.3333C31.9874 18.3333 31.1666 17.5126 31.1666 16.5V14.6667ZM25.6666 1.83333H29.3333V12.8333H25.6666V1.83333ZM25.6666 14.6667H29.3333V16.5C29.3333 17.5126 28.5126 18.3333 27.5 18.3333C26.4874 18.3333 25.6666 17.5126 25.6666 16.5V14.6667ZM20.1666 1.83333H23.8333V12.8333H20.1666V1.83333ZM20.1666 14.6667H23.8333V16.5C23.8333 17.5126 23.0126 18.3333 22 18.3333C20.9874 18.3333 20.1666 17.5126 20.1666 16.5V14.6667ZM19.25 18.8998C20.5478 20.4186 22.8309 20.5978 24.3497 19.3001C24.4934 19.1774 24.6273 19.0435 24.75 18.8998C26.0477 20.4186 28.3309 20.5978 29.8497 19.3001C29.9934 19.1774 30.1273 19.0435 30.25 18.8998C31.5477 20.4186 33.8309 20.5978 35.3497 19.3001C35.4934 19.1774 35.6273 19.0435 35.75 18.8998C37.0477 20.4186 39.3309 20.5978 40.8497 19.3001C40.9934 19.1774 41.1273 19.0435 41.25 18.8998C42.5477 20.4186 44.8309 20.5978 46.3497 19.3001C46.4934 19.1774 46.6273 19.0435 46.75 18.8998C47.4395 19.701 48.4429 20.1632 49.5 20.1667V36.6667H47.6666V29.3333H44.9166V26.5833C44.9131 25.5249 44.3025 24.5624 43.3464 24.1083L43.9532 22.2888L42.2116 21.7085L41.4709 23.9314C41.0477 24.043 40.6577 24.2547 40.3333 24.5483C40.1376 24.3714 39.9175 24.2235 39.6797 24.1093L40.2866 22.2897L38.5449 21.7094L37.8042 23.9323C37.3812 24.0437 36.9911 24.2549 36.6666 24.5483C36.4709 24.3714 36.2508 24.2235 36.0131 24.1093L36.6199 22.2897L34.8782 21.7094L34.1376 23.9323C32.9309 24.2479 32.0877 25.3361 32.0833 26.5833V29.3333H29.3333V36.6667H25.6666V35.75C25.6633 33.5699 24.1272 31.6928 21.9908 31.2583C21.9908 31.2272 22 31.1978 22 31.1667V30.25C21.997 27.72 19.9466 25.6696 17.4166 25.6667H16.5C15.7812 25.6683 15.1297 26.0897 14.8335 26.7447C14.0184 26.0532 12.9855 25.6714 11.9166 25.6667H11C9.98741 25.6667 9.16665 26.4874 9.16665 27.5V28.4167C9.17077 29.4118 9.5018 30.3781 10.109 31.1667H10.0833H9.16665C8.15407 31.1667 7.33331 31.9874 7.33331 33V33.9167C7.33686 34.9116 7.66732 35.8779 8.27381 36.6667H5.49998V20.1667C6.55701 20.1632 7.56042 19.701 8.24998 18.8998C9.54775 20.4186 11.8309 20.5978 13.3497 19.3001C13.4934 19.1774 13.6273 19.0435 13.75 18.8998C15.0477 20.4186 17.3309 20.5978 18.8497 19.3001C18.9934 19.1774 19.1273 19.0435 19.25 18.8998ZM35.75 31.1667H45.8333V36.6667H31.1666V31.1667H35.75ZM33.9166 29.3333V26.5833C33.9166 26.0771 34.3271 25.6667 34.8333 25.6667C35.3395 25.6667 35.75 26.0771 35.75 26.5833V29.3333H33.9166ZM37.5833 29.3333V26.5833C37.5833 26.0771 37.9937 25.6667 38.5 25.6667C39.0062 25.6667 39.4166 26.0771 39.4166 26.5833V29.3333H37.5833ZM41.25 29.3333V26.5833C41.25 26.0771 41.6604 25.6667 42.1666 25.6667C42.6729 25.6667 43.0833 26.0771 43.0833 26.5833V29.3333H41.25ZM11 28.4167V27.5H11.9166C13.4354 27.5 14.6666 28.7312 14.6666 30.25V31.1667H13.75C12.2312 31.1667 11 29.9355 11 28.4167ZM12.8333 35.75V36.6667H11.9166C10.3978 36.6667 9.16665 35.4355 9.16665 33.9167V33H10.0833C11.6021 33 12.8333 34.2312 12.8333 35.75ZM14.6666 33H15.5833C17.1021 33 18.3333 34.2312 18.3333 35.75V36.6667H17.4166C15.8978 36.6667 14.6666 35.4355 14.6666 33.9167V33ZM16.5 28.4167V27.5H17.4166C18.9354 27.5 20.1666 28.7312 20.1666 30.25V31.1667H19.25C17.7312 31.1667 16.5 29.9355 16.5 28.4167ZM20.1666 33H21.0833C22.6021 33 23.8333 34.2312 23.8333 35.75V36.6667H22.9166C21.3978 36.6667 20.1666 35.4355 20.1666 33.9167V33ZM9.16665 16.5V14.6667H12.8333V16.5C12.8333 17.5126 12.0126 18.3333 11 18.3333C9.98741 18.3333 9.16665 17.5126 9.16665 16.5ZM16.3781 1.83333H18.3333V12.8333H14.8069L16.3781 1.83333ZM14.6666 14.6667H18.3333V16.5C18.3333 17.5126 17.5126 18.3333 16.5 18.3333C15.4874 18.3333 14.6666 17.5126 14.6666 16.5V14.6667ZM14.5264 1.83333L12.9552 12.8333H9.46548L12.6078 1.83333H14.5264ZM3.66665 12.133L8.81648 1.83333H10.7011L7.55881 12.8333H3.66665V12.133ZM3.66665 14.6667H7.33331V16.5C7.33331 17.5126 6.51255 18.3333 5.49998 18.3333C4.48741 18.3333 3.66665 17.5126 3.66665 16.5V14.6667ZM51.3333 53.1667H3.66665V38.5H51.3333V53.1667ZM49.5 18.3333C48.4874 18.3333 47.6666 17.5126 47.6666 16.5V14.6667H51.3333V16.5C51.3333 17.5126 50.5126 18.3333 49.5 18.3333Z" />
<path d="M44 33H33V34.8333H44V33Z" />
<path d="M38.5 43.0833H36.1295L38.2314 40.9814L36.9353 39.6852L34.8269 41.7936C34.2517 41.4423 33.5916 41.2544 32.9175 41.25H32.6242C31.4135 41.2514 30.2775 41.8359 29.5726 42.8203L28.1188 44.8562C26.925 43.1673 24.9848 42.1641 22.9167 42.1667H22C20.9874 42.1667 20.1667 42.9874 20.1667 44V44.9167C20.1707 48.4588 23.0412 51.3293 26.5834 51.3333H27.5C27.581 51.3334 27.6619 51.3249 27.7411 51.3077C27.8173 51.32 27.8941 51.3286 27.9712 51.3333H28.0885C28.4465 51.333 28.7995 51.2496 29.1198 51.0895L34.5941 48.3523C35.8676 47.721 36.6714 46.4206 36.6667 44.9992C36.6667 44.9707 36.6594 44.9442 36.6584 44.9167H38.5V43.0833ZM27.4945 49.4826L26.5834 49.5C24.0534 49.497 22.003 47.4467 22 44.9167V44H22.9167C24.7977 43.9946 26.4888 45.1451 27.1746 46.8967C27.3891 47.4331 27.4996 48.0056 27.5 48.5833L27.4945 49.4826ZM33.7737 46.7124H33.7746L29.3334 48.9335V48.5833C29.3313 48.2999 29.3101 48.0169 29.2701 47.7363C29.2619 47.6749 29.2536 47.6144 29.2435 47.553C29.2002 47.2782 29.1389 47.0067 29.0602 46.7399C29.0602 46.7289 29.0602 46.717 29.0529 46.706L31.0695 43.8845C31.4295 43.3839 32.0075 43.086 32.6242 43.0833H32.9166C33.9747 43.0836 34.8323 43.9414 34.8321 44.9995C34.832 45.7248 34.4222 46.3878 33.7737 46.7124Z" />
</svg>
