<svg width="55" height="55" viewBox="0 0 55 55" fill="#000000" xmlns="http://www.w3.org/2000/svg">
<g clip-path="url(#clip0_102_205)">
<path d="M43.235 13.7256C43.5351 13.7256 43.8234 13.5571 43.9619 13.2684C44.1544 12.8673 43.9855 12.3861 43.5843 12.1935L27.8488 4.6387C27.6283 4.53289 27.3718 4.53289 27.1514 4.6387L11.4159 12.1935C11.0148 12.3861 10.8457 12.8673 11.0383 13.2684C11.2309 13.6694 11.7121 13.8385 12.1133 13.646L27.5001 6.25873L42.8869 13.6461C42.9993 13.7001 43.1181 13.7256 43.235 13.7256Z" />
<path d="M52.764 49.293C52.8745 49.0106 52.9359 48.7038 52.9359 48.3826C52.9359 47.0003 51.8113 45.8758 50.4291 45.8758H49.6981C49.931 45.4443 50.0634 44.951 50.0634 44.4273C50.0634 43.0189 49.1067 41.8305 47.8093 41.4758V38.8764C47.8093 38.4315 47.4486 38.0708 47.0036 38.0708C46.5587 38.0708 46.198 38.4315 46.198 38.8764V41.3673H40.2532V21.9049H46.198V35.6538C46.198 36.0987 46.5587 36.4594 47.0036 36.4594C47.4486 36.4594 47.8093 36.0987 47.8093 35.6538V21.7966C49.1067 21.442 50.0634 20.2535 50.0634 18.8451C50.0634 18.3213 49.931 17.828 49.698 17.3964H50.4315C51.7865 17.3964 52.899 16.5089 53.1998 15.1878C53.5006 13.8669 52.8823 12.5851 51.6609 11.9984L28.7277 0.988283C27.9474 0.61467 27.0526 0.61467 26.2715 0.988606L10.1454 8.7305C9.74424 8.923 9.57516 9.40436 9.76776 9.80547C9.96037 10.2066 10.4415 10.3757 10.8427 10.1831L26.9682 2.44159C27.3062 2.27982 27.694 2.27982 28.0311 2.44127L50.9633 13.4508C51.6143 13.7635 51.7338 14.3683 51.6287 14.8299C51.5235 15.2916 51.1538 15.785 50.4313 15.785H4.56865C3.84624 15.785 3.47649 15.2916 3.37133 14.8299C3.26616 14.3682 3.38572 13.7635 4.03648 13.4509L7.93697 11.5786C8.33809 11.3861 8.50717 10.9047 8.31467 10.5036C8.12217 10.1026 7.64092 9.93341 7.2397 10.1259L3.33899 11.9984C2.11782 12.585 1.4995 13.8668 1.80028 15.1877C2.10117 16.5088 3.21374 17.3963 4.56865 17.3963H5.30213C5.06913 17.8278 4.93668 18.3212 4.93668 18.845C4.93668 20.2534 5.89338 21.4418 7.19082 21.7964V41.4757C5.89338 41.8303 4.93668 43.0188 4.93668 44.4272C4.93668 44.9509 5.06913 45.4443 5.30202 45.8757H4.57102C3.18871 45.8757 2.06422 47.0003 2.06422 48.3825C2.06422 48.7036 2.12556 49.0105 2.23609 49.2929C0.980654 49.4286 0 50.4943 0 51.785C0 53.1673 1.1246 54.2918 2.5068 54.2918H52.4931C53.8754 54.2918 54.9999 53.1672 54.9999 51.785C55 50.4943 54.0193 49.4286 52.764 49.293ZM48.452 44.4273C48.452 45.226 47.8022 45.8758 47.0035 45.8758H39.4477C38.6489 45.8758 37.9991 45.226 37.9991 44.4273C37.9991 43.6291 38.648 42.9797 39.4461 42.9789C39.4466 42.9789 39.447 42.979 39.4476 42.979H47.0036C47.0042 42.979 47.0046 42.9789 47.0051 42.9789C47.8031 42.9797 48.452 43.6291 48.452 44.4273ZM47.0041 20.2936C47.0038 20.2936 47.0037 20.2936 47.0035 20.2936H39.4475C39.4474 20.2936 39.4471 20.2936 39.447 20.2936C38.6486 20.2933 37.999 19.6437 37.999 18.8451C37.999 18.0463 38.6488 17.3966 39.4476 17.3966H47.0034C47.8021 17.3966 48.4519 18.0463 48.4519 18.8451C48.452 19.6437 47.8024 20.2934 47.0041 20.2936ZM38.6418 21.7966V41.4758C37.3444 41.8305 36.3877 43.0189 36.3877 44.4273C36.3877 44.951 36.5201 45.4444 36.753 45.8758H33.9724C34.2053 45.4443 34.3377 44.951 34.3377 44.4273C34.3377 43.0189 33.381 41.8304 32.0836 41.4758V21.7966C33.381 21.442 34.3377 20.2535 34.3377 18.8451C34.3377 18.3213 34.2053 17.828 33.9723 17.3964H36.753C36.52 17.828 36.3875 18.3213 36.3875 18.8451C36.3877 20.2534 37.3444 21.442 38.6418 21.7966ZM22.2735 44.4273C22.2735 43.6285 22.9233 42.9788 23.722 42.9788H31.2779C32.0766 42.9788 32.7264 43.6285 32.7264 44.4273C32.7264 45.226 32.0766 45.8758 31.2779 45.8758H23.722C22.9234 45.8758 22.2735 45.226 22.2735 44.4273ZM23.7221 17.3966H31.278C32.0767 17.3966 32.7265 18.0463 32.7265 18.8451C32.7265 19.6439 32.0767 20.2936 31.278 20.2936H23.7221C22.9234 20.2936 22.2736 19.6438 22.2736 18.8451C22.2736 18.0465 22.9234 17.3966 23.7221 17.3966ZM24.5277 21.9049H30.4724V41.3674H24.5277V21.9049ZM21.0276 17.3964C20.7946 17.828 20.6622 18.3213 20.6622 18.8451C20.6622 20.2535 21.6189 21.442 22.9163 21.7966V41.4758C21.6189 41.8304 20.6622 43.0189 20.6622 44.4273C20.6622 44.951 20.7946 45.4444 21.0275 45.8758H18.2469C18.4798 45.4443 18.6122 44.951 18.6122 44.4273C18.6122 43.0189 17.6555 41.8304 16.358 41.4758V21.7966C17.6554 21.442 18.6122 20.2535 18.6122 18.8451C18.6122 18.3213 18.4798 17.828 18.2468 17.3964H21.0276ZM8.80215 21.9049H14.7467V41.3674H8.80215V21.9049ZM6.54801 18.8451C6.54801 18.0463 7.1978 17.3966 7.99648 17.3966H15.5523C16.3511 17.3966 17.0009 18.0463 17.0009 18.8451C17.0009 19.6439 16.3511 20.2936 15.5523 20.2936H7.99648C7.1978 20.2936 6.54801 19.6439 6.54801 18.8451ZM6.54801 44.4273C6.54801 43.6285 7.1978 42.9788 7.99648 42.9788H15.5523C16.3511 42.9788 17.0009 43.6285 17.0009 44.4273C17.0009 45.226 16.3511 45.8758 15.5523 45.8758H7.99648C7.1978 45.8758 6.54801 45.226 6.54801 44.4273ZM4.57102 47.4871H50.429C50.9228 47.4871 51.3245 47.8889 51.3245 48.3826C51.3245 48.8763 50.9227 49.2781 50.429 49.2781H4.57102C4.0772 49.2781 3.67555 48.8763 3.67555 48.3826C3.67555 47.8889 4.0772 47.4871 4.57102 47.4871ZM52.4932 52.6806H2.5068C2.01298 52.6806 1.61133 52.2788 1.61133 51.7851C1.61133 51.2914 2.01309 50.8896 2.5068 50.8896H52.4931C52.9869 50.8896 53.3886 51.2914 53.3886 51.7851C53.3887 52.2788 52.9869 52.6806 52.4932 52.6806Z" />
<path d="M24.2109 11.1987C24.2109 13.0123 25.6864 14.4878 27.5 14.4878C29.3136 14.4878 30.789 13.0123 30.789 11.1987C30.789 9.38513 29.3136 7.90969 27.5 7.90969C25.6864 7.90969 24.2109 9.38524 24.2109 11.1987ZM29.1777 11.1987C29.1777 12.1239 28.4251 12.8764 27.5 12.8764C26.5749 12.8764 25.8223 12.1239 25.8223 11.1987C25.8223 10.2736 26.5749 9.52102 27.5 9.52102C28.4251 9.52102 29.1777 10.2737 29.1777 11.1987Z" />
</g>
</svg>
