<svg width="55" height="55" viewBox="0 0 55 55" fill="#000000" xmlns="http://www.w3.org/2000/svg">
<path d="M47.2711 11.2686C47.2947 11.4786 47.3948 11.6725 47.5523 11.8133C47.7099 11.9542 47.9138 12.032 48.1251 12.032C48.3364 12.032 48.5403 11.9542 48.6978 11.8133C48.8554 11.6725 48.9555 11.4786 48.9791 11.2686C49.0404 10.7262 49.1243 9.98337 50.9578 9.41478C51.1741 9.34612 51.3544 9.1947 51.4594 8.99358C51.5645 8.79245 51.5857 8.55794 51.5185 8.34121C51.4514 8.12448 51.3012 7.94312 51.1008 7.8367C50.9004 7.73028 50.666 7.70744 50.4488 7.77316C49.3198 8.12293 48.5944 8.5857 48.125 9.08908C47.6555 8.5857 46.9301 8.12293 45.8013 7.77284C45.6935 7.73942 45.5802 7.72756 45.4678 7.73794C45.3554 7.74832 45.2462 7.78073 45.1463 7.83333C45.0464 7.88593 44.9579 7.95768 44.8858 8.04449C44.8137 8.1313 44.7593 8.23147 44.7259 8.33927C44.6925 8.44708 44.6806 8.56041 44.691 8.6728C44.7014 8.78518 44.7338 8.89443 44.7864 8.99429C44.839 9.09415 44.9108 9.18267 44.9976 9.2548C45.0844 9.32693 45.1845 9.38126 45.2924 9.41468C47.1259 9.98315 47.2097 10.726 47.2711 11.2686Z" />
<path d="M23.2085 6.97167C23.2321 7.18166 23.3322 7.3756 23.4898 7.51643C23.6473 7.65726 23.8512 7.73511 24.0625 7.73511C24.2738 7.73511 24.4777 7.65726 24.6353 7.51643C24.7928 7.3756 24.8929 7.18166 24.9165 6.97167C24.9779 6.4293 25.0618 5.68647 26.8952 5.11789C27.0037 5.08506 27.1046 5.0311 27.1922 4.9591C27.2797 4.8871 27.3522 4.7985 27.4053 4.6984C27.4585 4.59829 27.4913 4.48865 27.5019 4.3758C27.5125 4.26296 27.5007 4.14912 27.4672 4.04086C27.4336 3.9326 27.379 3.83205 27.3064 3.74499C27.2338 3.65794 27.1447 3.5861 27.0442 3.53363C26.9437 3.48115 26.8339 3.44907 26.721 3.43922C26.6081 3.42938 26.4943 3.44197 26.3863 3.47627C25.2574 3.82603 24.5318 4.28881 24.0624 4.79219C23.593 4.28881 22.8675 3.82603 21.7388 3.47605C21.5216 3.41033 21.2872 3.43318 21.0868 3.5396C20.8864 3.64602 20.7362 3.82738 20.669 4.04411C20.6018 4.26084 20.6231 4.49535 20.7281 4.69647C20.8332 4.8976 21.0135 5.04901 21.2298 5.11767C23.0634 5.68626 23.1472 6.42908 23.2085 6.97167Z" />
<path d="M53.103 24.3979L38.5486 5.47692C38.1546 4.96473 37.6502 4.548 37.0728 4.25774C36.4955 3.96747 35.8602 3.81116 35.2141 3.80042C34.568 3.78968 33.9278 3.9248 33.3412 4.19572C32.7545 4.46664 32.2365 4.86639 31.8258 5.3652L24.8621 13.8211C24.4128 13.3208 23.8524 12.933 23.2259 12.6888C22.5994 12.4446 21.9243 12.3508 21.255 12.415C20.5856 12.4792 19.9407 12.6996 19.3721 13.0585C18.8034 13.4173 18.3269 13.9047 17.9809 14.4812L13.4552 22.0241L13.1553 21.8441C12.6402 21.5351 12.0661 21.3375 11.47 21.264C10.8738 21.1906 10.2689 21.2429 9.69419 21.4177C9.11951 21.5925 8.58787 21.8859 8.13357 22.2788C7.67927 22.6718 7.31241 23.1556 7.05665 23.6991L1.8005 34.8685H1.80125C1.74701 34.9829 1.71883 35.1078 1.71875 35.2344V52.4219C1.71875 52.6498 1.80929 52.8684 1.97046 53.0296C2.13162 53.1907 2.3502 53.2813 2.57812 53.2813H52.4219C52.6498 53.2813 52.8684 53.1907 53.0295 53.0296C53.1907 52.8684 53.2812 52.6498 53.2812 52.4219V24.9219C53.2813 24.7323 53.2186 24.5481 53.103 24.3979ZM31.7334 41.7358C26.6564 38.6357 21.3633 36.53 16.5994 35.6702C22.0735 33.4233 27.6651 31.4741 33.3498 29.8311L31.8318 34.9919C31.7941 35.1201 31.7868 35.2553 31.8105 35.3867C31.8342 35.5182 31.8882 35.6423 31.9682 35.7493C32.0482 35.8562 32.1521 35.943 32.2715 36.0028C32.3909 36.0626 32.5227 36.0938 32.6562 36.0938H36.0938V40.0722C34.6073 40.5363 33.1511 41.0921 31.7334 41.7362V41.7358ZM47.7331 32.6563H42.4136L44.7778 24.9725L47.7331 32.6563ZM40.0402 28.0756C40.7536 27.9067 41.4648 27.7446 42.1738 27.5894L41.0097 31.3731L40.0402 28.0756ZM40.1016 34.375H33.8047L36.9531 23.6707L40.1016 34.375ZM37.8125 36.0938H41.25C41.3836 36.0938 41.5153 36.0626 41.6348 36.0028C41.7542 35.943 41.858 35.8562 41.9381 35.7493C42.0181 35.6423 42.0721 35.5182 42.0958 35.3867C42.1194 35.2553 42.1121 35.1201 42.0745 34.9919L41.893 34.375H43.8281V38.3727C41.7998 38.6467 39.7906 39.0477 37.8125 39.5734V36.0938ZM45.5469 34.375H48.9844C49.1238 34.375 49.2612 34.3411 49.3847 34.2761C49.5081 34.2112 49.6138 34.1171 49.6928 34.0022C49.7718 33.8872 49.8216 33.7547 49.8379 33.6162C49.8542 33.4777 49.8366 33.3373 49.7865 33.2071L47.2396 26.5854C48.6924 26.3289 50.14 26.1008 51.5625 25.9043V37.8192C49.4861 37.8441 47.4809 37.9595 45.5469 38.1654V34.375ZM46.6116 24.9525L45.4896 22.0352C45.4255 21.8684 45.3109 21.7257 45.1618 21.6271C45.0128 21.5285 44.8367 21.4787 44.658 21.4849C44.4794 21.491 44.3071 21.5527 44.1652 21.6613C44.0232 21.77 43.9187 21.9202 43.8662 22.091L42.7539 25.7067C41.6978 25.9303 40.627 26.1703 39.5549 26.4245L37.7779 20.3826C37.7255 20.2045 37.6169 20.0482 37.4683 19.9369C37.3197 19.8257 37.1391 19.7656 36.9534 19.7656C36.7678 19.7656 36.5872 19.8257 36.4386 19.9369C36.29 20.0482 36.1814 20.2045 36.129 20.3826L34.0887 27.3197L25.895 15.2706L28.5249 12.0771L30.1908 13.5052C30.6349 13.8895 31.1975 14.1097 31.7846 14.1288C32.3716 14.1479 32.9473 13.9649 33.4155 13.6103L35.2344 12.2461L36.9639 13.5431C37.4614 13.9128 38.0749 14.092 38.6932 14.0481C39.3115 14.0041 39.8936 13.74 40.3338 13.3037L41.502 12.1354L50.8363 24.2701C49.443 24.4688 48.029 24.6982 46.6116 24.9525ZM33.1525 6.45789C33.399 6.1586 33.7098 5.91875 34.0618 5.7562C34.4138 5.59364 34.7979 5.51257 35.1855 5.51901C35.5732 5.52546 35.9544 5.61925 36.3008 5.79341C36.6472 5.96757 36.9498 6.21761 37.1862 6.52492L40.4451 10.7614L39.1182 12.0882C38.9715 12.2337 38.7775 12.3219 38.5714 12.3365C38.3652 12.3511 38.1607 12.2914 37.9949 12.168L35.75 10.4844C35.6012 10.3728 35.4203 10.3125 35.2344 10.3125C35.0484 10.3125 34.8675 10.3728 34.7188 10.4844L32.3844 12.2354C32.2283 12.3536 32.0364 12.4147 31.8407 12.4083C31.645 12.4019 31.4574 12.3285 31.3094 12.2003L29.6178 10.7501L33.1525 6.45789ZM19.4547 15.3655C19.6774 14.9944 19.99 14.6853 20.3635 14.4667C20.7371 14.2482 21.1597 14.1272 21.5923 14.1149C22.025 14.1026 22.4537 14.1995 22.8391 14.3965C23.2245 14.5935 23.554 14.8844 23.7974 15.2423L26.4902 19.2021L24.4983 20.862C24.3555 20.9798 24.1788 21.0487 23.9939 21.0586C23.8091 21.0684 23.626 21.0188 23.4715 20.9169L21.9612 19.91C21.82 19.8159 21.6542 19.7657 21.4845 19.7657C21.3148 19.7657 21.1489 19.8159 21.0077 19.91L19.4971 20.9169C19.3426 21.0188 19.1594 21.0684 18.9746 21.0586C18.7898 21.0487 18.613 20.9798 18.4702 20.862L16.9278 19.5767L19.4547 15.3655ZM8.6119 24.431C8.76536 24.1049 8.98547 23.8146 9.25805 23.5788C9.53062 23.3431 9.84959 23.1671 10.1944 23.0622C10.5392 22.9573 10.9021 22.9259 11.2598 22.9699C11.6175 23.014 11.962 23.1326 12.271 23.318L13.3079 23.9401C13.4046 23.9981 13.5119 24.0366 13.6235 24.0532C13.7351 24.0698 13.8489 24.0642 13.9584 24.0369C14.0679 24.0095 14.1709 23.9608 14.2616 23.8936C14.3523 23.8265 14.4289 23.7421 14.4869 23.6453L16.0331 21.0681L17.3701 22.1826C17.7983 22.5363 18.3287 22.7432 18.8833 22.7728C19.4378 22.8025 19.9872 22.6533 20.4507 22.3472L21.4844 21.6579L22.518 22.3469C22.9814 22.653 23.5308 22.8023 24.0854 22.7727C24.64 22.7432 25.1704 22.5363 25.5986 22.1826L27.4612 20.6305L32.6409 28.2476C25.9984 30.1808 19.482 32.5235 13.1291 35.2622C12.758 35.2437 12.392 35.2344 12.0312 35.2344C8.29608 35.2344 5.08804 36.0723 3.4375 36.5995V35.4266L8.6119 24.431ZM3.4375 38.4131C4.70895 37.9749 8.09585 36.9531 12.0312 36.9531C17.2337 36.9531 23.6758 39.0141 29.8986 42.6418C28.6658 43.2951 27.48 44.0336 26.3499 44.8519C22.5136 47.6416 20.7173 50.436 20.0986 51.5625H3.4375V38.4131ZM51.5625 51.5625H22.1097C22.2783 51.3072 22.4805 51.0186 22.7194 50.7042C23.5771 49.575 25.0969 47.8711 27.4662 46.1659C30.1354 44.2446 33.3173 42.7128 36.9239 41.6129C41.2264 40.3006 46.147 39.603 51.5625 39.5365V51.5625Z" />
<path d="M7.3047 10.2856C7.78857 10.8342 8.38362 11.2735 9.05031 11.5744C9.71701 11.8754 10.4401 12.031 11.1716 12.031C11.903 12.031 12.6261 11.8754 13.2928 11.5744C13.9595 11.2735 14.5546 10.8342 15.0384 10.2856C15.5223 10.3465 16.0135 10.3037 16.4795 10.1601C16.9455 10.0165 17.3756 9.77542 17.7413 9.45284C18.107 9.13026 18.3998 8.73358 18.6004 8.28912C18.801 7.84467 18.9048 7.36262 18.9048 6.875C18.9048 6.38737 18.801 5.90533 18.6004 5.46087C18.3998 5.01642 18.107 4.61973 17.7413 4.29715C17.3756 3.97458 16.9455 3.73349 16.4795 3.5899C16.0135 3.44632 15.5223 3.40352 15.0384 3.46435C14.5546 2.9158 13.9595 2.47648 13.2928 2.17556C12.6261 1.87464 11.903 1.71901 11.1716 1.71901C10.4401 1.71901 9.71701 1.87464 9.05031 2.17556C8.38362 2.47648 7.78857 2.9158 7.3047 3.46435C6.82089 3.40352 6.32966 3.44632 5.86366 3.5899C5.39765 3.73349 4.96752 3.97458 4.60184 4.29715C4.23617 4.61973 3.9433 5.01642 3.7427 5.46087C3.5421 5.90533 3.43835 6.38737 3.43835 6.875C3.43835 7.36262 3.5421 7.84467 3.7427 8.28912C3.9433 8.73358 4.23617 9.13026 4.60184 9.45284C4.96752 9.77542 5.39765 10.0165 5.86366 10.1601C6.32966 10.3037 6.82089 10.3465 7.3047 10.2856ZM5.15626 6.875C5.15654 6.6051 5.2203 6.33904 5.34241 6.09834C5.46452 5.85764 5.64155 5.64905 5.85919 5.48942C6.07682 5.32979 6.32896 5.2236 6.59523 5.17944C6.86149 5.13528 7.13441 5.15438 7.39193 5.2352C7.56604 5.28965 7.75295 5.28728 7.92562 5.22843C8.09829 5.16959 8.24776 5.05732 8.35239 4.90789C8.66927 4.45393 9.09108 4.08319 9.58196 3.8272C10.0728 3.57121 10.6183 3.43753 11.1719 3.43753C11.7255 3.43753 12.2709 3.57121 12.7618 3.8272C13.2527 4.08319 13.6745 4.45393 13.9914 4.90789C14.096 5.05732 14.2455 5.16959 14.4182 5.22843C14.5908 5.28728 14.7777 5.28965 14.9519 5.2352C15.2093 5.15437 15.4821 5.13527 15.7482 5.17945C16.0144 5.22363 16.2664 5.32985 16.4839 5.48951C16.7014 5.64917 16.8783 5.85779 17.0001 6.09849C17.122 6.33918 17.1856 6.6052 17.1856 6.875C17.1856 7.1448 17.122 7.41081 17.0001 7.65151C16.8783 7.89221 16.7014 8.10083 16.4839 8.26049C16.2664 8.42015 16.0144 8.52637 15.7482 8.57055C15.4821 8.61473 15.2093 8.59563 14.9519 8.51479C14.7777 8.46035 14.5908 8.46272 14.4182 8.52156C14.2455 8.58041 14.096 8.69267 13.9914 8.84211C13.6745 9.29607 13.2527 9.6668 12.7618 9.92279C12.2709 10.1788 11.7255 10.3125 11.1719 10.3125C10.6183 10.3125 10.0728 10.1788 9.58196 9.92279C9.09108 9.6668 8.66927 9.29607 8.35239 8.84211C8.24785 8.69257 8.09839 8.58023 7.92569 8.52137C7.75299 8.46252 7.56603 8.46021 7.39193 8.51479C7.13441 8.59562 6.86149 8.61472 6.59523 8.57056C6.32896 8.52639 6.07682 8.42021 5.85919 8.26058C5.64155 8.10095 5.46452 7.89235 5.34241 7.65165C5.2203 7.41095 5.15654 7.1449 5.15626 6.875Z" />
</svg>
