<svg width="100" height="100" viewBox="0 0 100 100" fill="#000" xmlns="http://www.w3.org/2000/svg">
<path d="M91.9582 50.1821L88.9626 43.3679C88.7853 42.9643 88.5883 42.5641 88.3773 42.1791C87.1279 39.8944 85.0775 38.1745 82.6042 37.3358C80.1387 36.5 77.466 36.6115 75.0775 37.6502L73.9232 38.1522L72.4481 34.7966C72.4479 34.7962 72.4477 34.7956 72.4475 34.7952L71.3606 32.3231C70.4319 30.2107 68.7335 28.59 66.5783 27.76C64.4337 26.9341 62.1007 26.994 60.0072 27.9285L56.177 29.5878C55.4684 28.5799 54.6078 27.8108 53.6044 27.2914C51.5086 26.2068 48.9873 26.298 46.1102 27.5629L43.3694 28.7677L39.8216 20.6972C38.3774 17.4117 35.6969 15.1574 32.4678 14.5119C29.4321 13.9052 26.3413 14.7639 24.1989 16.8088C20.9839 19.8769 20.0602 24.4837 21.8439 28.5408L35.2833 59.3048C34.158 59.0771 32.9722 58.9729 31.7688 59.0022C28.6431 59.0793 25.8325 60.0733 23.9507 61.7492C23.8272 61.8293 23.711 61.9241 23.6046 62.0337C21.7134 63.9813 20.7811 66.3372 20.908 68.8466C21.0668 71.9827 22.8582 75.0753 26.0885 77.7904C26.1048 77.8042 26.1214 77.8177 26.1383 77.8309L53.764 99.5733C54.1214 99.8548 54.5566 100 54.9963 100C55.2676 100 55.5405 99.9446 55.7977 99.8315L95.3738 82.4336C96.056 82.1339 96.5138 81.4781 96.5602 80.7343L96.7756 77.2856C97.3532 68.0374 95.6875 58.6651 91.9582 50.1821ZM92.7995 77.0374L92.6596 79.2747L55.2889 95.7034L28.6285 74.7205C26.3154 72.7691 24.9871 70.6123 24.8875 68.6452C24.823 67.3699 25.26 66.1823 26.1875 65.1098C26.2544 65.0566 26.3186 64.9986 26.3795 64.9358C28.7642 62.4799 34.711 62.3102 37.8166 64.5876L44.6785 71.1781C45.0648 71.549 45.5618 71.7335 46.0582 71.7335C46.5815 71.7335 47.104 71.5285 47.4953 71.1213C48.2574 70.3279 48.2319 69.0667 47.4385 68.3046L40.762 61.892L25.4935 26.9414C24.1554 23.8976 25.3686 21.2002 26.9503 19.6908C28.1361 18.559 29.9515 18.0715 31.6877 18.4187C33.6538 18.8117 35.2475 20.1902 36.1752 22.3004L47.7409 48.6096C48.069 49.356 48.7993 49.8004 49.5656 49.8004C49.8333 49.8004 50.1054 49.7462 50.3662 49.6315C51.3734 49.1886 51.8309 48.0133 51.3881 47.0062L44.9736 32.4147L47.7146 31.2098C49.4349 30.4538 50.8009 30.3257 51.7742 30.8295C52.463 31.1861 53.0437 31.8928 53.4999 32.9303L60.3206 48.4458C60.6487 49.1922 61.3789 49.6366 62.1453 49.6366C62.413 49.6366 62.6851 49.5825 62.9459 49.4677C63.953 49.0249 64.4106 47.8496 63.9678 46.8424L57.9531 33.1602L61.6024 31.5791C61.6102 31.5757 61.6178 31.5725 61.6254 31.5689C62.7459 31.0667 63.9967 31.0341 65.1475 31.4773C66.3046 31.9229 67.2162 32.7924 67.7144 33.9259L75.8194 52.3651C76.1475 53.1115 76.8777 53.556 77.6441 53.556C77.9118 53.556 78.1839 53.5018 78.4447 53.387C79.4518 52.9444 79.9094 51.7689 79.4666 50.7617L75.5266 41.7992L76.6664 41.3036C79.7475 39.9635 83.2799 41.1615 84.8823 44.0912C85.0383 44.3763 85.1839 44.6721 85.3152 44.9709L88.311 51.7853C91.7853 59.6888 93.3375 68.4209 92.7995 77.0374Z" />
<path d="M84.9723 76.509L83.0072 77.3709C81.9996 77.8128 81.5412 78.9877 81.9831 79.9952C82.3108 80.7424 83.0414 81.1877 83.8084 81.1877C84.0755 81.1877 84.3472 81.1337 84.6074 81.0193L86.5725 80.1574C87.5801 79.7155 88.0384 78.5406 87.5966 77.5331C87.155 76.5255 85.9801 76.0669 84.9723 76.509Z" />
<path d="M77.0458 80.0301L56.0592 89.2348C55.0516 89.6767 54.5932 90.8516 55.0351 91.8591C55.3628 92.6064 56.0934 93.0516 56.8604 93.0516C57.1275 93.0516 57.3992 92.9976 57.6594 92.8834L78.646 83.6785C79.6536 83.2366 80.1119 82.0617 79.6701 81.0542C79.2285 80.0468 78.0538 79.5882 77.0458 80.0301Z" />
<path d="M25.3022 9.00338C25.4966 9.94502 26.3259 10.593 27.251 10.593C27.3845 10.593 27.5202 10.5795 27.6558 10.5516C28.7333 10.3291 29.4263 9.2753 29.2038 8.19781L27.8393 1.58944C27.617 0.512148 26.5628 -0.180482 25.4857 0.0414308C24.4082 0.263742 23.7152 1.31753 23.9377 2.39502L25.3022 9.00338Z" />
<path d="M8.17436 9.34522C8.75384 8.40976 8.465 7.18207 7.52974 6.60279L6.15384 5.7508C5.21838 5.17132 3.99069 5.45996 3.41141 6.39542C2.83193 7.33088 3.12077 8.55857 4.05603 9.13785L5.43193 9.98984C5.75862 10.1922 6.12097 10.2886 6.47894 10.2886C7.14567 10.2886 7.79747 9.95379 8.17436 9.34522Z" />
<path d="M12.0427 14.3914L16.2921 17.1865C16.6295 17.4084 17.0092 17.5144 17.3849 17.5144C18.0329 17.5144 18.6684 17.1986 19.0512 16.6167C19.6558 15.6976 19.4006 14.4624 18.4815 13.8578L14.2319 11.0628C13.3126 10.4582 12.0775 10.7134 11.4729 11.6325C10.8684 12.5516 11.1235 13.7869 12.0427 14.3914Z" />
<path d="M17.2555 26.9902C17.033 25.9129 15.9796 25.2201 14.9017 25.4422L8.29331 26.8068C7.21582 27.0291 6.52279 28.0829 6.7453 29.1604C6.93972 30.102 7.76901 30.75 8.69411 30.75C8.82757 30.75 8.96323 30.7365 9.09909 30.7086L15.7075 29.344C16.7849 29.1215 17.478 28.0677 17.2555 26.9902Z" />
<path d="M22.266 37.2474C21.3467 36.6426 20.1115 36.898 19.5071 37.8171L15.7991 43.4548C15.1945 44.3739 15.4497 45.6092 16.3688 46.2137C16.7063 46.4357 17.086 46.5416 17.4617 46.5416C18.1097 46.5416 18.7451 46.2259 19.1278 45.644L22.8358 40.0064C23.4404 39.0873 23.1852 37.852 22.266 37.2474Z" />
<path d="M44.0947 20.9522C44.2891 21.8936 45.1184 22.5416 46.0435 22.5416C46.1769 22.5416 46.3124 22.5281 46.4485 22.5002L50.854 21.5904C51.9315 21.3679 52.6246 20.3141 52.402 19.2367C52.1795 18.1592 51.1259 17.4661 50.0483 17.6886L45.6427 18.5984C44.5652 18.8209 43.8722 19.8747 44.0947 20.9522Z" />
<path d="M58.4342 19.9831C58.5677 19.9831 58.7033 19.9695 58.8392 19.9416L60.2161 19.6574C61.2936 19.4349 61.9866 18.3811 61.7641 17.3036C61.5416 16.2263 60.4884 15.5333 59.4103 15.7556L58.0334 16.0398C56.9559 16.2624 56.2629 17.3161 56.4854 18.3936C56.6798 19.3351 57.5091 19.9831 58.4342 19.9831Z" />
<path d="M38.0294 12.347C38.3668 12.5689 38.7465 12.6749 39.1222 12.6749C39.7702 12.6749 40.4059 12.3592 40.7883 11.7773L44.4963 6.13966C45.1009 5.22053 44.8457 3.98527 43.9266 3.38069C43.0072 2.77591 41.772 3.03129 41.1676 3.95041L37.4596 9.58806C36.8551 10.5072 37.1102 11.7424 38.0294 12.347Z" />
</svg>
