<svg width="55" height="55" viewBox="0 0 55 55" fill="#000000" xmlns="http://www.w3.org/2000/svg">
<path d="M28.152 15.9061C29.6771 14.4205 29.7056 11.9799 28.222 10.4607C26.7364 8.93729 24.3013 8.90343 22.78 10.389C21.2568 11.8742 21.2228 14.3096 22.7101 15.8307C24.1902 17.3556 26.6308 17.386 28.152 15.9061Z" />
<path d="M23.5451 41.6842C22.0239 43.1661 21.9915 45.6031 23.4753 47.1246C24.9552 48.6493 27.396 48.6816 28.9207 47.1995C30.4422 45.7141 30.4726 43.2735 28.9871 41.7541C27.5016 40.2292 25.0684 40.1988 23.5451 41.6842Z" />
<path d="M29.8888 27.6968L24.3213 26.1019L23.4809 23.3782C24.5992 22.0898 24.5794 20.1456 23.3662 18.9002L22.3786 17.8879C21.9361 17.4311 21.1801 17.0476 20.8182 16.9561L12.6597 14.8631C11.916 14.6696 11.1241 14.9062 10.6043 15.474L5.69455 20.8249C4.91677 21.6742 4.97227 22.9949 5.8199 23.7724C6.21949 24.1397 6.72482 24.3225 7.23003 24.3225C7.79444 24.3225 8.35537 24.0932 8.76764 23.6469L12.8315 19.2138L15.5516 19.9111L9.74241 25.5716C8.85027 26.335 8.04391 27.5461 8.55618 28.7648L10.8517 34.2266L1.35305 39.1522C0.12545 39.7884 -0.354647 41.3007 0.281409 42.5265C0.91567 43.745 2.41897 44.2324 3.65543 43.5962L15.2061 37.6077C15.5374 37.4358 15.7958 37.19 16.0124 36.9124L17.2739 38.3084L15.4282 45.1355C15.0681 46.467 15.8581 47.8431 17.1915 48.2032C18.5392 48.5634 19.9026 47.7623 20.2592 46.4399L22.4614 38.2956C22.6819 37.4751 22.4741 36.5987 21.9024 35.968L16.6128 30.1084L20.1338 26.677L20.6696 28.4095C20.8775 29.0835 21.4096 29.6068 22.087 29.8002L28.7402 31.7049C29.8512 32.024 31.0033 31.377 31.3188 30.2751C31.6359 29.1677 30.9962 28.0139 29.8888 27.6968Z" />
<path d="M54.8783 25.6197L52.4396 18.7784C52.1812 18.0544 51.5453 17.531 50.7854 17.4165L42.4548 16.164C42.0749 16.1084 41.2399 16.1695 40.6559 16.4149L39.3497 16.9633C37.7495 17.6386 36.9683 19.4217 37.5006 21.0451L35.6672 23.2241L29.9169 22.5271C28.7469 22.3892 27.7327 23.2027 27.5948 24.3458C27.4569 25.4908 28.2704 26.5285 29.4136 26.6664L36.2855 27.4997C36.9699 27.5856 37.669 27.3203 38.1348 26.7721L39.2976 25.3868L41.3924 30.3629L37.9342 32.834C37.6006 33.0742 37.3302 33.3913 37.1474 33.757L31.7251 44.6749C31.1105 45.9112 31.6157 47.4148 32.8539 48.0293C34.0868 48.6387 35.5902 48.1458 36.2103 46.9006L40.4319 38.396L47.8898 47.386C48.768 48.4415 50.343 48.5974 51.4144 47.7142C52.4788 46.8306 52.6258 45.2537 51.7425 44.1894L44.9099 35.9538L49.1515 31.8147C50.076 30.9132 49.8396 29.6069 49.3376 28.494L46.1571 20.9397L48.931 21.3552L50.9505 27.0194C51.3393 28.1126 52.5416 28.6715 53.6151 28.2828C54.699 27.8974 55.2652 26.704 54.8783 25.6197Z" />
<path d="M41.1505 14.1069C43.111 13.2846 44.0284 11.0285 43.2041 9.06656C42.3798 7.10973 40.1236 6.18665 38.1654 7.01297C36.205 7.83705 35.2821 10.0949 36.1064 12.057C36.9343 14.0136 39.1918 14.9366 41.1505 14.1069Z" />
</svg>
