<svg width="55" height="55" viewBox="0 0 55 55" fill="#000000" xmlns="http://www.w3.org/2000/svg">
<g clip-path="url(#clip0_108_391)">
<path d="M9.24208 7.91282C8.79295 7.91282 8.42889 8.27687 8.42889 8.726V10.8809C8.42889 11.33 8.79284 11.6941 9.24208 11.6941C9.69121 11.6941 10.0553 11.33 10.0553 10.8809V8.726C10.0553 8.27698 9.69121 7.91282 9.24208 7.91282Z" />
<path d="M9.24208 13.7145C8.79295 13.7145 8.42889 14.0785 8.42889 14.5277V16.6825C8.42889 17.1317 8.79284 17.4957 9.24208 17.4957C9.69121 17.4957 10.0553 17.1317 10.0553 16.6825V14.5277C10.0553 14.0786 9.69121 13.7145 9.24208 13.7145Z" />
<path d="M13.2202 11.8911H11.0653C10.6162 11.8911 10.2521 12.2551 10.2521 12.7043C10.2521 13.1534 10.6162 13.5175 11.0653 13.5175H13.2202C13.6693 13.5175 14.0334 13.1534 14.0334 12.7043C14.0334 12.2553 13.6693 11.8911 13.2202 11.8911Z" />
<path d="M7.41863 11.8911H5.26375C4.81461 11.8911 4.45056 12.2551 4.45056 12.7043C4.45056 13.1534 4.81461 13.5175 5.26375 13.5175H7.41863C7.86777 13.5175 8.23182 13.1534 8.23182 12.7043C8.23182 12.2553 7.86777 11.8911 7.41863 11.8911Z" />
<path d="M50.3213 31.3642L44.7932 25.6329C44.7932 25.6329 44.7932 25.6329 44.7931 25.6329L44.7921 25.6319C44.7915 25.6312 44.7907 25.6308 44.7901 25.6302C44.7052 25.5426 44.6001 25.4734 44.48 25.4306L39.7015 23.7262C39.2785 23.5752 38.8133 23.7959 38.6625 24.2188C38.5116 24.6418 38.7322 25.107 39.1551 25.2578L41.7861 26.1963L28.3076 31.0033L14.8292 26.1963L17.5365 25.2307C17.9595 25.0798 18.1801 24.6146 18.0292 24.1917C17.8784 23.7687 17.4131 23.5482 16.9902 23.699L12.1354 25.4306C12.0154 25.4734 11.9103 25.5427 11.8253 25.6302C11.8247 25.6308 11.8239 25.6312 11.8233 25.6319L11.8223 25.6329H11.8222L6.29407 31.3642C6.10221 31.5631 6.02454 31.8456 6.0876 32.1145C6.15066 32.3834 6.34595 32.602 6.60613 32.6947L16.3399 36.1663C16.4302 36.1986 16.5224 36.2138 16.613 36.2138C16.9472 36.2138 17.2604 36.0063 17.379 35.6737C17.5299 35.2508 17.3092 34.7855 16.8863 34.6347L8.33949 31.5864L12.6296 27.1388L26.8475 32.2097L22.5573 36.6572L19.799 35.6735C19.3759 35.5224 18.9108 35.7432 18.76 36.1661C18.609 36.589 18.8297 37.0543 19.2526 37.2051L22.5052 38.3652C22.8063 38.4727 23.142 38.3936 23.3637 38.1638L28.3078 33.0382L33.2519 38.1638C33.4077 38.3255 33.6203 38.4124 33.8372 38.4124C33.9287 38.4124 34.021 38.3969 34.1102 38.365L50.0093 32.6946C50.2693 32.6018 50.4646 32.3832 50.5278 32.1144C50.591 31.8455 50.5132 31.5631 50.3213 31.3642ZM34.0581 36.657L29.7679 32.2094L43.9858 27.1386L48.2759 31.5862L34.0581 36.657Z" />
<path d="M37.5952 50.8745C37.4444 50.4516 36.9792 50.2311 36.5561 50.3818L28.3081 53.3236L13.222 47.943V36.851C13.222 36.4019 12.858 36.0379 12.4088 36.0379C11.9597 36.0379 11.5956 36.4019 11.5956 36.851V48.5163C11.5956 48.8602 11.8119 49.1668 12.1355 49.2822L28.0348 54.9528C28.1232 54.9844 28.2156 55.0001 28.3079 55.0001C28.4004 55.0001 28.4928 54.9843 28.5812 54.9528L37.1026 51.9137C37.5255 51.7627 37.7462 51.2975 37.5952 50.8745Z" />
<path d="M44.2072 36.0379C43.7581 36.0379 43.394 36.4019 43.394 36.851V47.9431L39.6886 49.2647C39.2657 49.4156 39.045 49.8808 39.1959 50.3037C39.3145 50.6365 39.6277 50.8438 39.9619 50.8438C40.0525 50.8438 40.1448 50.8286 40.2351 50.7964L44.4805 49.2822C44.8042 49.1668 45.0204 48.8602 45.0204 48.5163V36.851C45.0204 36.4019 44.6563 36.0379 44.2072 36.0379Z" />
<path d="M28.308 35.9945C27.8589 35.9945 27.4948 36.3585 27.4948 36.8076V50.6309C27.4948 51.0801 27.8589 51.4441 28.308 51.4441C28.7571 51.4441 29.1212 51.0801 29.1212 50.6309V36.8076C29.1212 36.3585 28.7571 35.9945 28.308 35.9945Z" />
<path d="M45.7178 9.22562L44.176 8.91302C42.9742 8.66928 42.0402 7.73546 41.7966 6.53363L41.484 4.9918C41.341 4.28679 40.7387 3.79436 40.0193 3.79436C39.2998 3.79436 38.6975 4.28679 38.5546 4.99191L38.242 6.53363C37.9983 7.73536 37.0644 8.66939 35.8626 8.91302L34.3207 9.22562C33.6156 9.36849 33.1233 9.97081 33.1233 10.6902C33.1233 11.4097 33.6156 12.012 34.3207 12.1549L35.8626 12.4675C37.0643 12.7111 37.9983 13.6451 38.242 14.8469L38.5546 16.3887C38.6975 17.0937 39.2998 17.5862 40.0193 17.5862C40.7387 17.5862 41.341 17.0937 41.484 16.3886L41.7966 14.8469C42.0402 13.6452 42.9741 12.7111 44.176 12.4675L45.7178 12.1549C46.4229 12.012 46.9152 11.4097 46.9152 10.6902C46.9152 9.97081 46.4228 9.3686 45.7178 9.22562ZM43.8527 10.8736C42.0091 11.2473 40.5763 12.6801 40.2025 14.5238L40.0193 15.4278L39.836 14.5238C39.4623 12.6801 38.0295 11.2474 36.1858 10.8736L35.2817 10.6903L36.1858 10.5071C38.0294 10.1332 39.4622 8.70044 39.836 6.85686L40.0193 5.9528L40.2025 6.85686C40.5762 8.70033 42.009 10.1332 43.8527 10.5071L44.7568 10.6903L43.8527 10.8736Z" />
<path d="M29.3973 6.96546L27.4188 6.56435C25.7857 6.23327 24.5164 4.96397 24.1853 3.33084L23.7842 1.35234C23.6226 0.556017 22.9426 0 22.1303 0C21.318 0 20.6379 0.556017 20.4765 1.35212L20.0754 3.33062C19.7443 4.96376 18.475 6.23306 16.8419 6.56413L14.8634 6.96525C14.0673 7.1267 13.5113 7.80668 13.5113 8.61901C13.5113 9.43134 14.0673 10.1114 14.8634 10.2729L16.8419 10.674C18.475 11.0051 19.7443 12.2744 20.0754 13.9075L20.4765 15.886C20.638 16.6821 21.318 17.2381 22.1303 17.2381C22.9426 17.2381 23.6227 16.6821 23.7841 15.886L24.1852 13.9075C24.5164 12.2744 25.7855 11.0051 27.4187 10.674L29.3972 10.2729C30.1933 10.1114 30.7493 9.43144 30.7493 8.61912C30.7493 7.80679 30.1934 7.12681 29.3973 6.96546ZM29.0739 8.67895L27.0954 9.08007C24.8205 9.54134 23.0524 11.3094 22.5912 13.5843L22.1901 15.5628C22.1829 15.5984 22.1802 15.6118 22.1303 15.6118C22.0803 15.6118 22.0776 15.5984 22.0705 15.5628L21.6693 13.5843C21.2081 11.3093 19.44 9.54123 17.1651 9.08007L15.1866 8.67895C15.151 8.67175 15.1377 8.66907 15.1377 8.61912C15.1377 8.56917 15.1511 8.56637 15.1866 8.55928L17.1651 8.15817C19.4401 7.6969 21.2082 5.92884 21.6693 3.65396L22.0705 1.67546C22.0777 1.6398 22.0803 1.62648 22.1303 1.62648C22.1802 1.62648 22.183 1.6398 22.1901 1.67546L22.5912 3.65396C23.0525 5.92895 24.8206 7.69701 27.0954 8.15817L29.0739 8.55928C29.1096 8.56648 29.1229 8.56917 29.1229 8.61912C29.1229 8.66907 29.1096 8.67186 29.0739 8.67895Z" />
<path d="M22.6803 25.7682C20.5262 20.4659 15.7033 15.7668 15.4992 15.5693C15.1763 15.2573 14.6617 15.266 14.3495 15.5888C14.0374 15.9116 14.046 16.4262 14.3687 16.7385C14.4162 16.7846 19.151 21.4016 21.1736 26.3803C21.302 26.6961 21.6062 26.8876 21.9273 26.8876C22.0292 26.8876 22.1329 26.8683 22.233 26.8277C22.6491 26.6585 22.8494 26.1841 22.6803 25.7682Z" />
<path d="M25.6131 15.666C25.1639 15.666 24.7999 16.0301 24.7999 16.4792V23.9601C24.7999 24.4092 25.1639 24.7733 25.6131 24.7733C26.0622 24.7733 26.4262 24.4092 26.4262 23.9601V16.4792C26.4261 16.0301 26.0621 15.666 25.6131 15.666Z" />
<path d="M39.6758 18.531C39.327 18.248 38.8148 18.3013 38.5321 18.6502C36.5121 21.1405 35.0281 23.5353 34.1209 25.7681C33.9518 26.1841 34.1523 26.6585 34.5682 26.8275C34.6686 26.8681 34.7721 26.8874 34.874 26.8874C35.195 26.8874 35.4994 26.696 35.6276 26.3801C36.6822 23.7844 38.4759 21.3008 39.7951 19.6746C40.0779 19.326 40.0246 18.8139 39.6758 18.531Z" />
<path d="M32.6023 13.0707C32.1569 13.0127 31.7491 13.327 31.6913 13.7724L30.3816 23.8553C30.3238 24.3006 30.6379 24.7086 31.0833 24.7664C31.1188 24.7709 31.1541 24.7733 31.189 24.7733C31.5915 24.7733 31.9413 24.4745 31.9943 24.0647L33.304 13.9817C33.3619 13.5365 33.0477 13.1285 32.6023 13.0707Z" />
</g>
</svg>
