<svg width="55" height="55" viewBox="0 0 55 55" fill="#000000" xmlns="http://www.w3.org/2000/svg">
<path d="M46.4385 3.07871C44.9991 3.07871 43.5811 3.76943 42.0879 5.22499C41.6582 5.64824 41.25 6.09081 40.8418 6.52695C41.2393 7.12744 41.4971 7.88476 41.669 8.50996C42.2705 7.84931 42.8614 7.17685 43.4414 6.60214C44.5264 5.53007 45.4932 4.92744 46.3311 5.02734C48.0606 5.23144 48.877 5.73095 49.5108 6.40341C50.1446 7.07587 50.5957 8.02763 51.2725 9.10829L52.9053 8.07919C52.3145 7.13173 51.8311 6.04355 50.918 5.07031C49.3496 3.76728 47.878 3.07763 46.4385 3.07871ZM12.2139 4.90166C6.48295 4.92636 3.86722 6.78798 1.93793 8.75595L3.31937 10.1095C5.19066 8.20058 7.08236 6.69882 12.9873 6.85244L16.6934 10.3458H18.3047C18.2832 9.38544 17.4668 8.47665 16.9512 7.9288C15.3506 6.19501 14.3623 4.89736 12.2139 4.90166ZM27.9727 5.95331C26.8877 5.95331 25.8028 5.97587 24.793 6.01455C25.2012 6.91474 25.3946 7.88154 25.502 8.6872C25.6094 9.93759 23.8262 10.0128 23.5899 8.94716C23.461 8.02226 23.0957 6.82128 22.6338 6.12949C21.001 6.23691 19.5293 6.38193 18.3047 6.53017C19.0889 7.4916 20.2383 8.87197 20.2383 9.8624C20.292 19.4971 19.9375 29.208 19.1963 38.9619C19.3682 38.7793 19.5401 38.5967 19.7227 38.4355C20.625 37.6191 21.6993 36.9639 22.9453 37.0391H22.9561C23.2354 37.0605 23.5039 37.1143 23.7618 37.1894C23.7832 35.4062 23.8262 33.8701 23.7725 32.4199C24.3418 33.0215 24.9219 33.4941 25.7061 32.3555C25.7813 34.2461 25.6953 36.1689 25.6739 38.4678C25.792 38.5859 25.8887 38.7041 25.9961 38.8223C26.7911 39.7461 27.4356 40.8848 27.9727 42.0019C28.166 42.4101 28.3379 42.8076 28.4991 43.1943C28.6387 37.125 28.5528 31.0664 28.2627 24.9971C29.1866 26.2109 29.6914 25.749 30.1963 24.9111C30.4864 30.9912 30.5723 37.082 30.4327 43.1621C31.6573 41.9482 33.1289 40.7021 34.9014 40.7344C35.3418 40.7451 35.7393 40.8418 36.1045 41.0029L36.1153 38.4355C36.9639 39.3916 37.5547 39.1768 38.0489 38.4355L38.0274 42.5391C38.4034 42.9258 38.7686 43.3877 39.0801 43.7959C39.4991 43.581 40.0362 43.3232 40.6807 43.0439L40.0684 35.1055C40.7129 35.6963 41.3575 36.1797 42.002 34.9551L42.5713 42.3135C43.2803 42.0664 44.0215 41.8623 44.7627 41.7764C43.5596 31.7432 42.0557 21.1514 40.0039 9.93759H40.0147C39.8643 9.14374 39.6602 8.36923 39.3809 7.83642C39.1123 7.30468 38.8438 7.05976 38.4463 6.96953C36.4912 6.52695 34.3965 6.25517 32.2911 6.10585C33.2149 7.94706 33.1934 9.8624 33.2149 11.4404C33.333 12.6006 31.3672 13.2666 31.2813 11.4619C31.2491 9.45204 31.3028 7.65273 29.917 5.98554C29.2725 5.96406 28.628 5.95439 27.9727 5.95331ZM37.7266 9.33925C38.9512 14.04 39.9395 22.1719 40.6377 26.9629C40.541 28.8535 39.1123 28.4023 38.7256 27.2422C38.0274 22.4082 36.9961 14.2334 35.8575 9.83017C36.9209 10.6573 37.5762 10.5714 37.7266 9.33925ZM24.0625 11.4941C24.4385 17.4023 24.3204 23.2139 23.9873 28.9502C24.0088 30.1318 22.3438 30.4648 22.0537 28.8428C22.3868 23.1494 22.5049 17.4238 22.1289 11.623C23.085 13.0518 23.6543 12.6221 24.0625 11.4941ZM29.5948 13.9111C29.9385 16.8652 30.0567 18.5195 30.0137 20.3457C29.3262 21.3662 28.6924 21.1943 28.0801 20.3027C28.1231 18.584 28.0049 17.0586 27.6827 14.126C28.4346 15.0498 29.0577 14.835 29.5948 13.9111ZM35.2129 16.833C35.5782 22.2793 35.6748 26.501 35.8145 33.4619C35.2774 34.042 34.7618 34.7187 33.8809 33.5049C33.7412 26.5439 33.6446 22.3652 33.2793 16.9619C34.085 17.9609 34.6866 17.6064 35.2129 16.833ZM8.78715 36.2549C7.63451 36.2226 7.05121 38.2851 7.34984 39.4023C7.74515 40.8848 11.086 42.0664 11.086 42.0664C11.086 42.0664 10.8711 36.3086 8.78715 36.2549ZM13.8789 36.2119C13.793 36.2764 13.7393 36.3623 13.6963 36.459C13.2452 37.5225 16.1241 38.9404 16.1241 38.9404C16.1241 38.9404 16.7578 37.0713 16.1885 36.4912C15.6836 35.9756 14.4053 35.7393 13.8789 36.2119ZM48.2002 35.8037C48.1465 35.8037 48.1035 35.8037 48.0606 35.8144C46.8037 36.0508 46.5674 38.3711 47.169 39.5635C47.169 39.5635 49.1885 38.5859 49.2959 37.6299C49.3819 36.9531 48.8662 35.8252 48.2002 35.8037ZM51.4014 38.0059C49.2207 38.124 49.5967 44.3008 49.5967 44.3008C49.5967 44.3008 52.5723 43.1728 52.9483 41.8408C53.3243 40.5195 52.7764 37.9307 51.4014 38.0059ZM21.0225 39.8643C20.3243 40.498 19.626 41.4326 19.0137 42.3887C17.8106 44.3008 16.9942 46.2559 16.9942 46.2559L16.6075 47.1904C14.2442 45.998 12.6436 45.3857 10.3963 45.2998C8.9558 45.2461 7.73656 46.5351 7.44974 47.706C7.29828 48.3935 7.44974 49.2422 8.42621 50.456C21.377 52.0459 41.8194 52.7226 52.583 50.499C52.959 48.7373 52.336 47.5234 51.1866 46.4277C49.9297 45.2139 47.9854 44.3223 46.3526 43.7959C45.5684 43.5381 43.6778 43.9248 42.1202 44.5371C40.5518 45.1601 39.2842 45.8799 39.2842 45.8799L38.4893 46.331L37.9952 45.5791C37.9952 45.5791 37.4795 44.7949 36.7813 44.0322C36.0723 43.2695 35.1162 42.668 34.8799 42.668C34.1709 42.6572 32.6563 43.6562 31.4961 44.8486C30.3467 46.0303 29.4981 47.2334 29.4981 47.2334L28.3164 48.8984L27.7686 46.9326C27.7686 46.9326 27.1993 44.8808 26.2217 42.8398C25.7383 41.8086 25.1475 40.7988 24.5352 40.0791C23.1709 38.6396 22.3545 38.6826 21.0225 39.8643ZM3.82211 41.25C3.36342 41.2393 2.96488 41.3789 2.764 41.7334C1.87562 43.2803 6.07045 45.9551 6.07045 45.9551C6.07045 45.9551 6.80951 43.1084 5.9641 42.1631C5.514 41.6689 4.58588 41.2607 3.82211 41.25Z" />
</svg>
