<svg width="55" height="55" viewBox="0 0 55 55" fill="#000000" xmlns="http://www.w3.org/2000/svg">
<path d="M27.5 27.5C27.9746 27.5 28.3594 27.1152 28.3594 26.6406C28.3594 26.166 27.9746 25.7812 27.5 25.7812C27.0254 25.7812 26.6406 26.166 26.6406 26.6406C26.6406 27.1152 27.0254 27.5 27.5 27.5Z" />
<path d="M20.6572 48.125H20.6555C20.6119 48.1311 20.5682 48.1364 20.5238 48.1392C20.3814 48.1483 20.2389 48.1219 20.1093 48.0622C19.9797 48.0025 19.867 47.9115 19.7813 47.7974C19.6957 47.6833 19.6398 47.5496 19.6187 47.4085C19.5976 47.2673 19.612 47.1232 19.6606 46.989C19.7317 46.8028 19.7695 46.6055 19.7722 46.4063C19.7726 45.9514 19.5925 45.5151 19.2715 45.1928C18.9505 44.8706 18.5148 44.6889 18.06 44.6875C17.7523 44.6882 17.4507 44.7737 17.1884 44.9346L17.1955 48.125C17.422 48.1271 17.6385 48.2186 17.798 48.3795C17.9574 48.5405 18.0468 48.7578 18.0468 48.9844V51.5625H20.6316C21.0874 51.5659 21.526 51.3882 21.8508 51.0683C22.1755 50.7484 22.3599 50.3126 22.3634 49.8567C22.3668 49.4009 22.189 48.9624 21.8691 48.6376C21.5492 48.3128 21.1134 48.1284 20.6576 48.125H20.6572Z" />
<path d="M13.75 30.9375H41.25V22.3438H13.75V30.9375ZM34.375 24.0625C34.8849 24.0625 35.3834 24.2137 35.8073 24.497C36.2313 24.7803 36.5617 25.1829 36.7569 25.654C36.952 26.1251 37.0031 26.6435 36.9036 27.1436C36.8041 27.6437 36.5586 28.1031 36.198 28.4636C35.8375 28.8242 35.3781 29.0697 34.878 29.1692C34.3779 29.2687 33.8595 29.2176 33.3884 29.0225C32.9173 28.8274 32.5147 28.4969 32.2314 28.073C31.9481 27.649 31.7969 27.1505 31.7969 26.6406C31.7976 25.9571 32.0695 25.3018 32.5528 24.8185C33.0362 24.3351 33.6915 24.0633 34.375 24.0625ZM27.5 24.0625C28.0099 24.0625 28.5084 24.2137 28.9323 24.497C29.3563 24.7803 29.6867 25.1829 29.8819 25.654C30.077 26.1251 30.1281 26.6435 30.0286 27.1436C29.9291 27.6437 29.6836 28.1031 29.323 28.4636C28.9625 28.8242 28.5031 29.0697 28.003 29.1692C27.5029 29.2687 26.9845 29.2176 26.5134 29.0225C26.0423 28.8274 25.6397 28.4969 25.3564 28.073C25.0731 27.649 24.9219 27.1505 24.9219 26.6406C24.9226 25.9571 25.1945 25.3018 25.6778 24.8185C26.1612 24.3351 26.8165 24.0633 27.5 24.0625ZM18.9062 24.0625H22.3438C22.5137 24.0625 22.6799 24.1129 22.8212 24.2073C22.9625 24.3017 23.0727 24.436 23.1377 24.593C23.2028 24.75 23.2198 24.9228 23.1866 25.0895C23.1535 25.2562 23.0716 25.4094 22.9514 25.5296L20.9809 27.5H22.3438C22.5717 27.5 22.7903 27.5905 22.9514 27.7517C23.1126 27.9129 23.2031 28.1315 23.2031 28.3594C23.2031 28.5873 23.1126 28.8059 22.9514 28.967C22.7903 29.1282 22.5717 29.2188 22.3438 29.2188H18.9062C18.7363 29.2188 18.5701 29.1684 18.4288 29.0739C18.2875 28.9795 18.1773 28.8453 18.1123 28.6882C18.0472 28.5312 18.0302 28.3584 18.0634 28.1917C18.0965 28.025 18.1784 27.8719 18.2986 27.7517L20.2691 25.7812H18.9062C18.6783 25.7812 18.4597 25.6907 18.2986 25.5295C18.1374 25.3684 18.0469 25.1498 18.0469 24.9219C18.0469 24.694 18.1374 24.4754 18.2986 24.3142C18.4597 24.153 18.6783 24.0625 18.9062 24.0625Z" />
<path d="M15.4688 32.6562H13.75V48.125H15.4688V32.6562Z" />
<path d="M16.3281 49.8438H12.8906V51.5625H16.3281V49.8438Z" />
<path d="M13.7501 20.625V18.4029L10.5643 15.2171C10.4844 15.1373 10.4211 15.0425 10.378 14.9383C10.3348 14.834 10.3125 14.7222 10.3125 14.6094C10.3125 14.4965 10.3348 14.3848 10.378 14.2805C10.4211 14.1762 10.4844 14.0815 10.5643 14.0017C10.7254 13.8405 10.944 13.75 11.1719 13.75C11.2848 13.75 11.3965 13.7722 11.5008 13.8154C11.6051 13.8586 11.6998 13.9219 11.7796 14.0017L13.7501 15.9721V7.73438C13.7501 7.50646 13.8406 7.28787 14.0018 7.12671C14.1629 6.96554 14.3815 6.875 14.6094 6.875C14.8374 6.875 15.0559 6.96554 15.2171 7.12671C15.3783 7.28787 15.4688 7.50646 15.4688 7.73438V15.9721L17.4393 14.0017C17.6004 13.8405 17.819 13.75 18.0469 13.75C18.2749 13.75 18.4935 13.8405 18.6546 14.0017C18.8158 14.1629 18.9063 14.3815 18.9063 14.6094C18.9063 14.8373 18.8158 15.0559 18.6546 15.2171L15.4688 18.4029V20.625H23.1677C22.7162 20.3397 22.2258 20.1211 21.7118 19.9757C21.5764 19.9376 21.4523 19.8668 21.3507 19.7695C21.249 19.6722 21.1727 19.5514 21.1286 19.4177C21.0846 19.2841 21.074 19.1416 21.0978 19.0029C21.1217 18.8642 21.1792 18.7335 21.2654 18.6222C21.9676 17.7213 22.3473 16.611 22.3438 15.4688C22.34 14.4224 22.0197 13.4016 21.4248 12.5407C20.83 11.6799 19.9886 11.0192 19.0112 10.6455C18.9015 10.604 18.8016 10.5406 18.7174 10.4591C18.6332 10.3776 18.5666 10.2797 18.5216 10.1715C18.4767 10.0632 18.4543 9.94697 18.4559 9.82979C18.4576 9.71262 18.4831 9.59701 18.5311 9.49008C18.8241 8.83577 18.9487 8.11854 18.8936 7.40374C18.8385 6.68894 18.6054 5.99929 18.2156 5.39761C17.8258 4.79593 17.2916 4.30136 16.6617 3.95894C16.0319 3.61651 15.3264 3.43713 14.6094 3.43713C13.8925 3.43713 13.187 3.61651 12.5571 3.95894C11.9273 4.30136 11.3931 4.79593 11.0033 5.39761C10.6135 5.99929 10.3804 6.68894 10.3253 7.40374C10.2702 8.11854 10.3948 8.83577 10.6878 9.49008C10.7357 9.59701 10.7613 9.71262 10.7629 9.82979C10.7646 9.94697 10.7422 10.0632 10.6973 10.1715C10.6523 10.2797 10.5857 10.3776 10.5015 10.4591C10.4173 10.5406 10.3173 10.604 10.2077 10.6455C9.23031 11.0192 8.38886 11.6799 7.79403 12.5407C7.1992 13.4016 6.87883 14.4224 6.87506 15.4688C6.8716 16.611 7.25132 17.7213 7.95347 18.6222C8.03966 18.7335 8.09721 18.8642 8.12106 19.0029C8.14491 19.1416 8.13432 19.2841 8.09024 19.4177C8.04615 19.5514 7.96991 19.6722 7.86822 19.7695C7.76653 19.8668 7.6425 19.9376 7.50703 19.9757C6.20908 20.3422 5.08753 21.1658 4.34946 22.2946C3.61138 23.4234 3.30661 24.7811 3.49143 26.117C3.67625 27.453 4.33817 28.677 5.35498 29.563C6.37179 30.449 7.67482 30.9372 9.0235 30.9375C10.09 30.9405 11.1345 30.6351 12.0313 30.0579V21.4844C12.0313 21.2565 12.1219 21.0379 12.283 20.8767C12.4442 20.7155 12.6628 20.625 12.8907 20.625H13.7501Z" />
<path d="M10.3282 44.5706C10.3254 44.6083 10.3202 44.6457 10.3125 44.6827V51.5625H11.1719V48.9844C11.1719 48.7565 11.2624 48.5379 11.4236 48.3767C11.5847 48.2155 11.8033 48.125 12.0312 48.125V42.9688C11.5976 42.9716 11.1811 43.1382 10.8652 43.4353C10.5494 43.7324 10.3575 44.138 10.3282 44.5706Z" />
<path d="M3.4375 46.8687C3.95949 46.5654 4.55253 46.4058 5.15625 46.4063V36.0938H3.4375V46.8687Z" />
<path d="M6.875 44.9191V51.5625H8.59375V44.9268C8.33399 44.7713 8.03713 44.6886 7.73438 44.6875C7.43252 44.6877 7.13608 44.7676 6.875 44.9191Z" />
<path d="M5.13047 48.125C4.67928 48.1323 4.24901 48.3165 3.93235 48.638C3.61569 48.9595 3.43798 49.3925 3.4375 49.8438V51.5625H5.15625V48.128C5.14841 48.127 5.14035 48.1265 5.13251 48.1254L5.13047 48.125Z" />
<path d="M6.875 43.0784C7.1557 43.0058 7.44444 42.969 7.73438 42.9687C8.02444 42.969 8.31328 43.0066 8.59375 43.0806V36.0938H6.875V43.0784Z" />
<path d="M34.375 27.5C34.8496 27.5 35.2344 27.1152 35.2344 26.6406C35.2344 26.166 34.8496 25.7812 34.375 25.7812C33.9004 25.7812 33.5156 26.166 33.5156 26.6406C33.5156 27.1152 33.9004 27.5 34.375 27.5Z" />
<path d="M10.3125 41.7197C10.8333 41.4126 11.4267 41.2504 12.0312 41.25V36.0938H10.3125V41.7197Z" />
<path d="M41.25 32.6562H39.5312V48.125H41.25V32.6562Z" />
<path d="M48.125 43.0784V36.0938H46.4062V43.0806C46.6867 43.0066 46.9756 42.969 47.2656 42.9687C47.5556 42.969 47.8443 43.0058 48.125 43.0784Z" />
<path d="M51.5625 49.8438C51.562 49.3925 51.3843 48.9595 51.0677 48.638C50.751 48.3165 50.3207 48.1323 49.8695 48.125H49.8675C49.8596 48.1261 49.8516 48.1266 49.8438 48.1276V51.5625H51.5625V49.8438Z" />
<path d="M48.125 44.9191C47.8639 44.7676 47.5675 44.6877 47.2656 44.6875C46.9629 44.6886 46.666 44.7713 46.4062 44.9268V51.5625H48.125V44.9191Z" />
<path d="M51.5625 36.0938H49.8438V46.4063C50.4475 46.4058 51.0405 46.5654 51.5625 46.8687V36.0938Z" />
<path d="M42.9688 41.25C43.5733 41.2504 44.1667 41.4126 44.6875 41.7197V36.0938H42.9688V41.25Z" />
<path d="M42.9688 30.0579C43.8655 30.6351 44.9101 30.9405 45.9766 30.9375C47.3252 30.9372 48.6283 30.449 49.6451 29.563C50.6619 28.677 51.3238 27.453 51.5086 26.117C51.6934 24.7811 51.3887 23.4234 50.6506 22.2946C49.9125 21.1658 48.791 20.3422 47.493 19.9757C47.3576 19.9376 47.2335 19.8668 47.1318 19.7695C47.0302 19.6722 46.9539 19.5514 46.9098 19.4177C46.8657 19.2841 46.8552 19.1416 46.879 19.0029C46.9029 18.8642 46.9604 18.7335 47.0466 18.6222C47.7487 17.7213 48.1285 16.611 48.125 15.4688C48.1212 14.4224 47.8009 13.4016 47.206 12.5407C46.6112 11.6799 45.7698 11.0192 44.7924 10.6455C44.6827 10.604 44.5828 10.5406 44.4986 10.4591C44.4144 10.3776 44.3478 10.2797 44.3028 10.1715C44.2579 10.0632 44.2355 9.94697 44.2371 9.82979C44.2388 9.71262 44.2643 9.59701 44.3123 9.49008C44.6053 8.83577 44.7299 8.11854 44.6748 7.40374C44.6197 6.68894 44.3866 5.99929 43.9968 5.39761C43.607 4.79593 43.0728 4.30136 42.4429 3.95894C41.8131 3.61651 41.1076 3.43713 40.3906 3.43713C39.6737 3.43713 38.9682 3.61651 38.3383 3.95894C37.7085 4.30136 37.1743 4.79593 36.7845 5.39761C36.3947 5.99929 36.1616 6.68894 36.1065 7.40374C36.0514 8.11854 36.176 8.83577 36.469 9.49008C36.5169 9.59701 36.5425 9.71262 36.5441 9.82979C36.5458 9.94697 36.5234 10.0632 36.4785 10.1715C36.4335 10.2797 36.3669 10.3776 36.2827 10.4591C36.1985 10.5406 36.0985 10.604 35.9889 10.6455C35.0115 11.0192 34.1701 11.6799 33.5752 12.5407C32.9804 13.4016 32.66 14.4224 32.6563 15.4688C32.6528 16.611 33.0325 17.7213 33.7347 18.6222C33.8209 18.7335 33.8784 18.8642 33.9023 19.0029C33.9261 19.1416 33.9155 19.2841 33.8714 19.4177C33.8274 19.5514 33.7511 19.6722 33.6494 19.7695C33.5477 19.8668 33.4237 19.9376 33.2882 19.9757C32.7743 20.1211 32.2839 20.3397 31.8323 20.625H39.5313V18.4029L36.3454 15.2171C36.1843 15.0559 36.0937 14.8373 36.0937 14.6094C36.0937 14.3815 36.1843 14.1629 36.3454 14.0017C36.5066 13.8405 36.7252 13.75 36.9531 13.75C37.1811 13.75 37.3997 13.8405 37.5608 14.0017L39.5313 15.9721V7.73438C39.5313 7.50646 39.6218 7.28787 39.783 7.12671C39.9441 6.96554 40.1627 6.875 40.3906 6.875C40.6186 6.875 40.8371 6.96554 40.9983 7.12671C41.1595 7.28787 41.25 7.50646 41.25 7.73438V15.9721L43.2204 14.0017C43.3816 13.8405 43.6002 13.75 43.8281 13.75C44.0561 13.75 44.2746 13.8405 44.4358 14.0017C44.597 14.1629 44.6875 14.3815 44.6875 14.6094C44.6875 14.8373 44.597 15.0559 44.4358 15.2171L41.25 18.4029V20.625H42.1094C42.3373 20.625 42.5559 20.7155 42.7171 20.8767C42.8782 21.0379 42.9688 21.2565 42.9688 21.4844V30.0579Z" />
<path d="M42.9688 42.9688V48.125C43.1967 48.125 43.4153 48.2155 43.5764 48.3767C43.7376 48.5379 43.8281 48.7565 43.8281 48.9844V51.5625H44.6875V44.6825C44.6798 44.6456 44.6746 44.6083 44.6718 44.5707C44.6425 44.1381 44.4507 43.7325 44.1348 43.4354C43.8189 43.1382 43.4024 42.9716 42.9688 42.9688Z" />
<path d="M30.0801 46.5145C30.0788 46.4782 30.0781 46.4421 30.0781 46.4062C30.0779 45.959 30.1655 45.516 30.3359 45.1025C30.0316 44.8411 29.6456 44.6943 29.2445 44.6875H29.2425C29.1988 44.6936 29.1552 44.6989 29.1106 44.7018C28.9681 44.7109 28.8256 44.6844 28.696 44.6246C28.5663 44.5649 28.4536 44.4738 28.368 44.3595C28.2824 44.2453 28.2266 44.1115 28.2056 43.9703C28.1847 43.829 28.1992 43.6848 28.248 43.5507C28.3191 43.3648 28.3568 43.1678 28.3594 42.9688C28.3611 42.6351 28.2652 42.3082 28.0834 42.0284C27.9016 41.7486 27.642 41.5281 27.3364 41.394C27.0309 41.2599 26.6928 41.2182 26.3638 41.274C26.0348 41.3297 25.7293 41.4805 25.485 41.7077C25.3657 41.8171 25.218 41.8905 25.0589 41.9197C24.8998 41.9488 24.7356 41.9324 24.5854 41.8724C24.4351 41.8124 24.3049 41.7112 24.2096 41.5804C24.1143 41.4496 24.0579 41.2946 24.0468 41.1332C24.0175 40.7006 23.8257 40.295 23.5098 39.9979C23.1939 39.7007 22.7774 39.5341 22.3438 39.5312C21.9199 39.5323 21.5119 39.6922 21.2001 39.9794C21.0423 40.1216 20.8374 40.2002 20.625 40.2002C20.4126 40.2002 20.2077 40.1216 20.0499 39.9794C19.7381 39.6922 19.3301 39.5323 18.9063 39.5312C18.4726 39.5341 18.0561 39.7007 17.7402 39.9978C17.4244 40.2949 17.2325 40.7005 17.2032 41.1331L17.1875 41.1318V43.0843C17.4721 43.0078 17.7654 42.969 18.0601 42.9688C18.9706 42.9707 19.8431 43.3336 20.4863 43.9781C21.1295 44.6225 21.4909 45.4958 21.491 46.4062C21.491 46.4423 21.4904 46.4787 21.4891 46.515C22.0017 46.6482 22.4766 46.898 22.8768 47.245C23.2769 47.592 23.5915 48.0268 23.7959 48.5154C24.0003 49.004 24.089 49.5333 24.0551 50.0618C24.0212 50.5904 23.8657 51.104 23.6006 51.5625H27.9619C27.6962 51.1037 27.5403 50.5895 27.5065 50.0604C27.4726 49.5313 27.5618 49.0015 27.7669 48.5125C27.972 48.0236 28.2875 47.5888 28.6887 47.2421C29.09 46.8955 29.566 46.6465 30.0795 46.5145H30.0801Z" />
<path d="M36.1094 44.5706C36.0983 44.732 36.0419 44.887 35.9467 45.0178C35.8514 45.1485 35.7212 45.2497 35.5709 45.3098C35.4207 45.3698 35.2566 45.3862 35.0975 45.3571C34.9383 45.328 34.7906 45.2545 34.6714 45.1452C34.427 44.918 34.1215 44.7672 33.7926 44.7115C33.4636 44.6558 33.1255 44.6975 32.8199 44.8315C32.5144 44.9656 32.2547 45.1861 32.0729 45.4659C31.8911 45.7457 31.7952 46.0726 31.7969 46.4062C31.7994 46.6055 31.8371 46.8027 31.9083 46.9888C31.957 47.123 31.9715 47.2672 31.9505 47.4084C31.9296 47.5496 31.8737 47.6833 31.7881 47.7975C31.7025 47.9118 31.5898 48.0029 31.4601 48.0626C31.3305 48.1223 31.188 48.1488 31.0456 48.1397C31.001 48.1368 30.9573 48.1316 30.9135 48.1254H30.9117C30.4559 48.1288 30.0201 48.3132 29.7002 48.638C29.3802 48.9627 29.2024 49.4012 29.2059 49.8571C29.2093 50.3129 29.3936 50.7487 29.7184 51.0686C30.0431 51.3885 30.4817 51.5663 30.9375 51.5629H36.9531V48.9844C36.9531 48.7565 37.0437 48.5379 37.2048 48.3767C37.366 48.2155 37.5846 48.125 37.8125 48.125V42.9688C37.3789 42.9716 36.9623 43.1382 36.6465 43.4353C36.3306 43.7324 36.1388 44.138 36.1094 44.5706Z" />
<path d="M42.1094 49.8438H38.6719V51.5625H42.1094V49.8438Z" />
</svg>
