<svg width="40" height="40" viewBox="0 0 40 40" fill="none" xmlns="http://www.w3.org/2000/svg">
<path d="M38.8743 15.5752L33.7781 10.4322V4.42886C33.7781 3.91455 33.3292 3.52181 32.8056 3.52181H25.4838L22.5475 1.07186C20.8176 -0.358841 18.3116 -0.358841 16.5816 1.08121L13.6454 3.52181H6.2301C5.7158 3.52181 5.2576 3.9052 5.2576 4.42886V10.535L0.25483 15.5846C0.077162 15.7622 -0.0163477 15.996 0.00235424 16.2485H0.0210562V35.3151C0.0210562 37.896 2.09697 40 4.66849 40H34.4513C37.0322 40 39.0988 37.8867 39.0988 35.3151V16.2391H39.1175C39.1455 15.996 39.052 15.7529 38.8743 15.5752ZM33.7781 13.0879L36.8078 16.1363L33.7781 18.3899V13.0879ZM17.7785 2.51191C18.8165 1.65162 20.322 1.66097 21.36 2.52126L22.5475 3.52181H16.5723L17.7785 2.51191ZM7.12779 5.39201H31.9079V19.7832L21.2571 27.7128C20.2472 28.4515 18.882 28.4515 17.8814 27.7128L7.12779 19.7084V5.39201ZM5.2576 13.1814V18.3244L2.3214 16.1363L5.2576 13.1814ZM37.2379 35.2964C37.2473 36.8487 36.0036 38.1111 34.4607 38.1204H4.66849C3.12558 38.1111 1.8819 36.8487 1.89125 35.3058V18.1L16.778 29.2183C18.4331 30.4433 20.6961 30.4433 22.3512 29.2183L37.2379 18.1V35.2964Z" fill="#FDFFFC"/>
<path d="M20 9C16.9074 9 14.3914 11.516 14.3914 14.6086V14.7637C14.3914 16.3277 15.2881 18.1503 17.0567 20.1808C18.3388 21.6528 19.6029 22.6791 19.6561 22.7221L20 23L20.3438 22.7222C20.397 22.6792 21.6612 21.6528 22.9433 20.1808C24.7118 18.1503 25.6086 16.3277 25.6086 14.7637V14.6086C25.6086 11.516 23.0926 9 20 9ZM24.5142 14.7637C24.5142 17.4069 21.1085 20.6065 20 21.5778C18.8911 20.6062 15.4857 17.4067 15.4857 14.7637V14.6086C15.4857 12.1195 17.5108 10.0944 20 10.0944C22.4891 10.0944 24.5142 12.1195 24.5142 14.6086V14.7637Z" fill="#FDFFFC"/>
</svg>
