<svg width="34" height="40" viewBox="0 0 34 40" fill="none" xmlns="http://www.w3.org/2000/svg">
<path d="M33.2913 30.4364C33.2373 29.657 33.1281 28.8068 32.9672 27.909C32.8049 27.0044 32.5958 26.1493 32.3456 25.3678C32.0871 24.56 31.7355 23.7622 31.301 22.9978C30.8499 22.2043 30.3201 21.5134 29.7256 20.9449C29.104 20.3501 28.3429 19.8719 27.4628 19.5231C26.5857 19.1761 25.6137 19.0003 24.574 19.0003C24.1656 19.0003 23.7708 19.1678 23.0081 19.6644C22.5388 19.9705 21.9897 20.3245 21.377 20.716C20.853 21.0499 20.1431 21.3627 19.2664 21.6459C18.4109 21.9227 17.5424 22.063 16.6852 22.063C15.8279 22.063 14.9597 21.9227 14.1034 21.6459C13.2275 21.363 12.5177 21.0502 11.9943 20.7163C11.3873 20.3284 10.838 19.9744 10.3616 19.6641C9.59991 19.1675 9.20471 19 8.79639 19C7.75635 19 6.78467 19.1761 5.9079 19.5234C5.02838 19.8716 4.26697 20.3498 3.64471 20.9452C3.05054 21.514 2.52045 22.2046 2.07001 22.9978C1.63574 23.7622 1.28418 24.5597 1.02539 25.3681C0.775452 26.1496 0.566406 27.0044 0.404053 27.909C0.243225 28.8056 0.133972 29.6561 0.0799561 30.4373C0.0268555 31.2027 0 31.9971 0 32.7994C0 34.8874 0.663757 36.5778 1.97266 37.8244C3.26538 39.0545 4.97589 39.6786 7.05597 39.6786H26.3162C28.3963 39.6786 30.1062 39.0549 31.3992 37.8244C32.7084 36.5787 33.3722 34.888 33.3722 32.7991C33.3719 31.9931 33.3447 31.1981 33.2913 30.4364Z" fill="#FDFFFC"/>
<path d="M16.6344 19.2681C19.2815 19.2681 21.5737 18.3187 23.4465 16.4456C25.3194 14.5727 26.2688 12.2811 26.2688 9.63375C26.2688 6.98728 25.3194 4.69542 23.4462 2.82195C21.5731 0.949398 19.2812 0 16.6344 0C13.987 0 11.6954 0.949398 9.82257 2.82225C7.94971 4.69511 7 6.98697 7 9.63375C7 12.2811 7.94971 14.573 9.82288 16.4459C11.696 18.3184 13.9879 19.2681 16.6344 19.2681Z" fill="#FDFFFC"/>
</svg>
